<?xml version="1.0" standalone="no"?>
<!DOCTYPE svg PUBLIC "-//W3C//DTD SVG 20010904//EN"
        "http://www.w3.org/TR/2001/REC-SVG-20010904/DTD/svg10.dtd">
<svg version="1.0" xmlns="http://www.w3.org/2000/svg"
     width="700.000000pt" height="700.000000pt" viewBox="0 0 700.000000 700.000000"
     preserveAspectRatio="xMidYMid meet">
    <metadata>
        Created by potrace 1.14, written by Peter Selinger 2001-2017
    </metadata>
    <g transform="translate(0.000000,700.000000) scale(0.100000,-0.100000)"
       fill="#000000" stroke="none">
        <path d="M3268 6994 c-4 -3 -160 -15 -220 -17 -27 -1 -48 -6 -48 -11 0 -5 -3
-6 -6 -3 -4 3 -15 2 -25 -4 -13 -7 -19 -6 -19 1 0 6 -5 8 -10 5 -9 -6 -26 -10
-75 -19 -5 -1 -16 -5 -22 -9 -8 -5 -13 -3 -13 3 0 8 -6 8 -21 0 -11 -7 -23 -9
-26 -6 -4 3 -12 1 -20 -5 -7 -6 -13 -9 -13 -6 0 3 -16 1 -36 -5 -20 -5 -45
-12 -55 -14 -11 -2 -28 -6 -39 -9 -32 -8 -64 -16 -80 -20 -8 -2 -16 -4 -17 -5
-3 -3 -3 -3 -53 -14 -19 -5 -41 -13 -49 -20 -8 -6 -15 -9 -15 -7 -1 2 -21 -3
-46 -10 -25 -7 -48 -12 -52 -11 -5 1 -8 -3 -8 -10 0 -6 -3 -8 -7 -5 -3 4 -17
0 -30 -8 -13 -9 -23 -13 -23 -9 0 4 -7 1 -15 -6 -8 -7 -15 -9 -15 -5 0 4 -7 2
-15 -5 -8 -7 -15 -9 -15 -4 0 5 -4 3 -9 -4 -4 -7 -17 -14 -29 -15 -12 0 -24
-7 -27 -15 -3 -7 -9 -11 -14 -8 -12 8 -61 -14 -61 -26 0 -5 -4 -7 -8 -4 -4 2
-40 -13 -80 -33 -39 -21 -69 -33 -65 -27 4 6 -3 3 -14 -6 -11 -10 -25 -18 -31
-18 -7 0 -12 -5 -12 -11 0 -5 -4 -7 -10 -4 -5 3 -10 2 -10 -2 0 -5 -20 -17
-45 -28 -25 -11 -45 -23 -45 -26 0 -4 -11 -10 -25 -13 -14 -4 -25 -10 -25 -15
0 -4 -18 -16 -40 -26 -22 -10 -37 -22 -33 -28 3 -6 1 -7 -5 -3 -6 4 -20 -2
-31 -13 -10 -10 -28 -22 -39 -25 -11 -4 -23 -13 -26 -21 -3 -8 -11 -15 -18
-15 -11 0 -30 -13 -85 -60 -7 -6 -13 -8 -13 -4 0 3 -9 -4 -20 -17 -10 -13 -19
-21 -20 -17 0 4 -13 -5 -29 -20 -16 -15 -43 -38 -60 -52 -17 -14 -39 -33 -48
-42 -10 -10 -23 -18 -31 -18 -7 0 -10 -4 -7 -10 3 -5 -5 -15 -19 -22 -14 -6
-26 -17 -26 -25 0 -7 -4 -13 -9 -13 -11 0 -194 -180 -183 -180 4 -1 -4 -7 -18
-15 -14 -8 -21 -14 -17 -15 4 0 -10 -18 -33 -40 -22 -21 -40 -43 -40 -47 0 -5
-8 -16 -18 -24 -27 -25 -52 -58 -52 -70 0 -5 -4 -8 -9 -5 -4 3 -13 -6 -19 -19
-7 -14 -16 -25 -22 -25 -5 0 -10 -7 -10 -15 0 -9 -7 -18 -15 -21 -8 -4 -13
-10 -10 -14 3 -4 -2 -13 -9 -19 -8 -7 -34 -42 -58 -79 -23 -37 -46 -68 -50
-70 -5 -2 -8 -9 -8 -17 0 -7 -7 -18 -15 -25 -8 -7 -13 -16 -10 -20 3 -4 -2
-11 -11 -14 -8 -3 -13 -10 -10 -15 3 -5 -1 -12 -10 -15 -8 -3 -13 -10 -10 -14
3 -5 -4 -19 -15 -30 -11 -12 -17 -22 -14 -22 4 0 -3 -13 -15 -30 -12 -16 -18
-30 -13 -30 4 0 3 -4 -3 -8 -6 -4 -34 -56 -63 -117 -28 -60 -56 -118 -62 -128
-5 -10 -7 -22 -4 -27 4 -6 1 -10 -4 -10 -6 0 -11 -7 -11 -15 0 -8 -5 -15 -12
-15 -6 0 -9 -3 -6 -6 4 -3 0 -20 -7 -39 -8 -18 -11 -35 -8 -39 4 -3 1 -6 -6
-6 -7 0 -9 -4 -6 -10 3 -5 2 -10 -3 -10 -5 0 -12 -12 -15 -27 -3 -16 -11 -41
-17 -58 -6 -16 -11 -30 -10 -30 1 0 -5 -18 -13 -40 -14 -35 -26 -80 -28 -102
-1 -5 -5 -15 -10 -24 -4 -9 -11 -28 -14 -42 -3 -15 -7 -39 -10 -54 -3 -14 -10
-34 -15 -43 -5 -10 -7 -19 -5 -22 2 -2 -2 -28 -10 -58 -8 -29 -12 -57 -9 -62
3 -4 2 -14 -3 -20 -8 -14 -10 -22 -18 -78 -3 -19 -7 -51 -10 -70 -21 -132 -27
-246 -28 -475 0 -245 2 -295 17 -314 9 -12 8 -13 -3 -6 -11 6 -13 4 -7 -10 6
-16 13 -76 20 -160 1 -11 4 -24 7 -30 3 -5 6 -26 8 -46 2 -34 8 -74 11 -74 1
0 3 -16 6 -35 2 -19 7 -42 11 -50 3 -8 8 -28 10 -45 2 -16 9 -43 15 -58 6 -15
8 -30 4 -34 -3 -3 -1 -12 5 -19 9 -11 21 -53 22 -81 0 -7 3 -13 6 -13 4 0 8
-12 9 -26 1 -14 5 -31 9 -37 4 -7 9 -21 10 -32 2 -10 7 -22 12 -25 4 -3 7 -13
5 -23 -1 -9 4 -24 13 -32 8 -8 12 -15 9 -15 -4 0 1 -17 9 -38 9 -20 16 -39 17
-42 1 -7 17 -47 39 -97 11 -24 19 -50 19 -58 0 -9 4 -14 8 -11 4 2 14 -15 21
-40 7 -24 17 -44 22 -44 5 0 9 -8 9 -19 0 -10 6 -24 14 -30 8 -7 17 -25 21
-40 3 -16 15 -37 25 -49 10 -11 16 -23 12 -27 -4 -4 0 -12 9 -18 9 -7 17 -16
19 -22 7 -27 24 -55 32 -55 5 0 6 -5 3 -10 -3 -6 -1 -10 5 -10 6 0 8 -4 5 -10
-3 -5 -1 -10 4 -10 6 0 11 -6 11 -13 0 -7 9 -23 20 -35 12 -12 18 -22 14 -22
-4 0 2 -10 13 -22 11 -13 24 -33 28 -46 3 -12 10 -20 15 -17 4 2 13 -9 20 -25
7 -17 16 -30 21 -30 4 0 10 -8 13 -17 3 -10 16 -30 28 -45 13 -14 32 -39 43
-54 11 -15 32 -41 47 -58 14 -17 24 -35 21 -41 -4 -5 -3 -7 2 -3 9 8 35 -15
35 -31 0 -6 4 -11 8 -11 4 0 28 -25 54 -55 25 -30 48 -52 50 -50 3 3 11 -6 18
-20 7 -13 21 -27 32 -31 10 -3 18 -10 18 -15 0 -11 43 -55 51 -52 3 1 12 -8
19 -21 7 -13 23 -29 36 -36 13 -7 21 -17 18 -22 -3 -4 1 -8 8 -8 7 0 24 -12
37 -25 13 -14 27 -25 33 -25 5 0 6 -4 3 -10 -3 -5 0 -10 7 -10 8 0 21 -8 30
-17 9 -10 30 -29 48 -43 17 -14 37 -31 45 -37 7 -7 17 -13 22 -13 5 0 16 -8
25 -18 25 -26 46 -42 57 -42 5 0 12 -7 15 -16 4 -9 13 -14 21 -10 9 3 15 0 15
-9 0 -8 3 -14 8 -13 14 3 42 -14 36 -23 -3 -5 4 -9 15 -9 12 0 21 -4 21 -8 0
-5 12 -15 28 -23 15 -7 37 -24 50 -37 12 -13 27 -20 34 -16 6 4 8 3 4 -4 -3
-6 3 -13 14 -17 11 -3 20 -11 20 -16 0 -5 3 -8 8 -7 11 3 82 -35 82 -44 0 -4
9 -8 19 -8 11 0 21 -5 23 -10 2 -6 13 -12 26 -13 12 0 22 -5 22 -9 0 -4 7 -8
15 -8 8 0 15 -4 15 -10 0 -5 9 -10 20 -10 11 0 20 -5 20 -10 0 -6 3 -9 8 -8 8
1 70 -24 120 -49 18 -9 39 -16 47 -16 8 0 15 -4 15 -9 0 -4 9 -8 20 -8 11 0
20 -4 20 -9 0 -5 8 -8 18 -7 9 2 20 -1 23 -6 3 -5 15 -10 26 -12 12 -3 34 -11
50 -18 15 -8 35 -14 43 -13 8 1 20 -2 25 -6 17 -12 113 -38 119 -32 3 4 6 0 6
-7 0 -7 3 -11 6 -7 3 3 18 1 33 -5 14 -5 37 -12 51 -14 22 -4 55 -12 85 -20
11 -3 44 -10 85 -19 14 -3 43 -8 65 -11 41 -6 66 -11 75 -14 3 -1 20 -2 38 -2
17 0 32 -3 32 -7 0 -3 17 -7 38 -8 20 0 80 -5 132 -9 111 -10 480 -10 595 0
44 4 93 7 108 6 19 0 26 3 22 11 -6 8 -2 8 12 0 11 -6 23 -7 27 -4 3 3 18 8
33 10 16 2 42 5 58 7 17 3 30 5 30 6 0 1 18 4 40 6 21 3 84 16 140 30 55 14
110 26 123 27 12 0 22 5 22 11 0 5 3 7 6 3 4 -3 21 0 39 8 19 7 36 11 39 8 2
-3 11 -1 18 3 7 5 15 9 18 9 21 4 97 30 107 38 7 5 16 6 22 3 5 -3 11 -1 13 4
2 6 13 12 26 13 12 0 22 5 22 9 0 4 9 8 20 8 11 0 20 4 20 9 0 5 8 8 17 7 10
-2 31 5 48 16 16 10 38 18 48 18 9 0 17 4 17 8 0 5 18 15 40 22 21 7 37 18 33
23 -3 6 -1 7 5 3 10 -6 210 90 223 107 3 5 8 8 10 7 11 -4 38 13 33 21 -3 5 3
9 14 9 10 0 36 16 58 35 21 19 44 35 50 35 7 0 15 7 18 16 3 8 10 13 15 10 5
-3 14 1 21 9 7 8 30 25 51 37 22 12 39 25 39 30 0 4 5 8 10 8 11 0 28 13 60
44 11 11 20 16 20 12 0 -4 11 3 24 16 13 13 33 30 46 38 12 8 36 29 54 45 18
17 60 53 92 82 84 73 194 183 194 193 0 5 9 12 21 15 11 4 18 9 15 12 -7 7 20
33 35 33 7 0 9 3 6 7 -4 3 5 17 19 30 14 12 23 23 20 23 -5 0 23 34 89 105 17
18 31 38 32 43 1 6 14 23 28 37 13 15 22 32 18 38 -3 5 -2 7 4 4 5 -3 22 14
38 38 15 25 32 45 37 45 5 0 6 4 3 10 -3 5 -1 10 5 10 6 0 9 4 6 9 -3 4 3 16
14 26 11 10 20 24 20 31 0 7 7 17 16 22 9 5 15 12 15 15 -3 21 0 27 9 22 6 -3
14 5 20 19 5 14 14 26 19 26 5 0 14 14 20 30 5 17 15 30 21 30 6 0 9 4 5 9 -3
5 0 15 7 23 7 7 14 20 16 28 2 8 10 22 17 30 7 8 14 20 14 25 1 15 34 79 46
87 6 4 6 8 2 8 -4 0 4 20 17 45 14 25 23 45 20 45 -4 0 -1 6 5 13 6 8 8 17 4
20 -3 4 -1 7 5 7 7 0 12 9 12 20 0 11 4 20 10 20 5 0 9 3 8 8 -1 7 3 20 22 67
40 103 60 166 55 175 -3 5 -2 10 3 10 11 0 26 45 25 73 0 9 4 17 9 17 5 0 8 6
5 13 -2 6 0 20 5 30 11 21 19 53 22 83 1 11 6 26 10 33 4 6 9 22 11 34 2 12 6
33 9 47 4 14 9 41 12 60 6 40 9 56 22 121 5 25 8 53 6 62 -1 9 1 17 4 17 4 0
8 17 8 38 1 20 5 75 10 122 4 47 8 184 8 305 0 195 -4 290 -20 430 -3 22 -6
61 -7 87 -1 25 -5 44 -9 41 -5 -2 -9 11 -10 29 -2 46 -4 59 -13 92 -4 16 -9
36 -10 45 -1 9 -4 27 -8 41 -4 14 -9 36 -12 50 -10 51 -50 195 -55 200 -6 6
-11 27 -13 52 -1 10 -5 18 -10 18 -5 0 -7 7 -3 15 3 8 0 15 -6 15 -6 0 -8 3
-5 7 4 3 2 12 -5 20 -6 7 -8 16 -4 20 3 3 -1 15 -11 25 -9 10 -13 18 -9 18 3
0 0 13 -8 29 -9 16 -12 31 -9 35 4 3 0 6 -7 6 -7 0 -11 3 -7 6 3 3 -14 48 -38
99 -24 52 -41 96 -37 99 3 3 0 6 -7 6 -7 0 -10 4 -6 9 3 5 1 12 -4 15 -5 3
-23 36 -41 73 -18 38 -37 71 -42 74 -5 3 -10 9 -10 12 0 19 -12 47 -19 47 -5
0 -9 6 -9 13 0 7 -9 23 -20 35 -12 12 -17 22 -13 22 4 0 -4 11 -19 24 -15 12
-25 26 -21 29 3 4 -2 9 -11 13 -9 3 -16 11 -16 16 0 6 -16 32 -35 58 -19 26
-35 52 -35 57 0 6 -11 18 -24 29 -14 10 -22 22 -20 26 3 5 -5 17 -18 28 -13
11 -19 19 -15 20 4 0 -2 10 -15 23 -13 13 -34 39 -48 57 -14 19 -39 49 -57 67
-17 18 -30 33 -27 33 2 0 -12 17 -32 38 -137 143 -186 192 -194 192 -6 0 -10
7 -10 15 0 8 -7 15 -15 15 -8 0 -15 7 -15 15 0 8 -7 15 -16 15 -8 0 -12 5 -9
10 3 6 1 10 -5 10 -6 0 -21 10 -34 23 -13 12 -43 38 -66 57 -24 19 -53 45 -65
58 -12 12 -27 22 -34 22 -6 0 -11 4 -11 8 0 5 -12 15 -27 23 -16 8 -37 24 -49
36 -12 13 -24 20 -27 16 -4 -3 -7 -2 -7 3 0 5 -16 18 -35 28 -19 11 -35 23
-35 28 0 5 -4 6 -10 3 -5 -3 -10 -1 -10 4 0 6 -7 11 -15 11 -8 0 -15 4 -15 8
0 5 -27 23 -60 42 -33 19 -60 37 -60 42 0 4 -9 8 -20 8 -11 0 -20 4 -20 9 0 5
-8 11 -17 14 -10 4 -56 27 -103 52 -46 25 -90 45 -97 45 -7 0 -13 4 -13 9 0 9
-38 24 -53 22 -4 -1 -10 6 -13 14 -3 8 -10 12 -15 9 -6 -3 -17 0 -26 8 -14 11
-16 11 -8 -2 6 -11 3 -10 -12 3 -11 9 -23 17 -26 17 -4 0 -26 9 -50 19 -43 20
-138 56 -147 56 -3 0 -18 6 -35 12 -39 16 -118 37 -127 35 -5 -1 -8 2 -8 7 0
6 -8 9 -17 9 -20 -1 -115 24 -123 32 -3 3 -14 6 -25 7 -22 1 -70 11 -70 13 0
2 -15 5 -60 13 -16 3 -41 8 -55 12 -14 3 -49 7 -78 10 -30 3 -58 7 -62 10 -5
3 -37 8 -72 10 -35 3 -79 8 -98 10 -36 6 -498 14 -502 9z"/>
    </g>
</svg>
