<svg width="37" height="44" viewBox="0 0 37 44" fill="none" xmlns="http://www.w3.org/2000/svg">
<g clip-path="url(#clip0_1847_23246)">
<path d="M2.13393 24.3735H34.8162V25.2426C34.8162 30.2316 34.818 35.2189 34.8162 40.2079C34.8145 42.7204 33.5221 43.9991 30.9923 43.9991C22.6217 43.9991 14.2493 43.9991 5.87868 43.9991C3.46421 43.9991 2.14081 42.6963 2.13737 40.2991C2.13048 35.2533 2.13565 30.2075 2.13565 25.1617V24.3735H2.13393Z" fill="url(#paint0_linear_1847_23246)"/>
<path d="M25.5335 15.0056C28.0254 15.0056 30.5191 15.0021 33.011 15.0056C35.5511 15.009 36.8573 16.3272 36.8642 18.8897C36.8676 20.1202 36.8642 21.3506 36.8642 22.6534H0C0.0980934 20.8533 0.0481862 19.0171 0.344187 17.2393C0.579956 15.8282 2.00145 15.021 3.6415 15.0107C5.9923 14.9952 8.3431 15.0056 10.6956 15.0056C10.9675 15.0056 11.2377 15.0056 11.5096 15.0056C9.5271 14.4135 7.69431 13.5892 6.11621 12.2693C4.27653 10.729 2.89806 8.90139 3.36959 6.3458C3.76025 4.22389 5.0389 2.60621 6.84761 1.43425C8.14519 0.590989 9.6011 0.202057 11.1276 0.0316847C12.9776 -0.173107 14.3474 0.627129 15.3921 2.07616C17.0769 4.40975 17.7532 7.12538 18.3004 9.88577C18.3589 10.1818 18.4295 10.4743 18.4536 10.5845C19.1282 8.4746 19.8166 6.24254 20.5652 4.03286C20.7545 3.47356 21.1056 2.96072 21.4291 2.4582C22.6905 0.498058 24.4046 -0.317665 26.7778 0.143546C29.6655 0.704571 31.8683 2.10885 33.1951 4.77286C34.2191 6.82594 33.9782 8.77232 32.6049 10.5707C30.8616 12.8527 28.4901 14.152 25.7383 14.8214C25.6609 14.8403 25.5852 14.8644 25.5094 14.8851C25.518 14.9264 25.5266 14.966 25.5335 15.0073V15.0056ZM8.11594 3.94681C8.99878 8.44706 11.7919 11.13 15.5521 13.3535C14.3371 9.11995 12.2462 5.88115 8.11594 3.94681ZM21.7458 13.2674C25.3787 11.1076 28.1872 8.41953 29.0064 4.05351C25.642 5.15147 22.3739 9.39702 21.7458 13.2674Z" fill="url(#paint1_linear_1847_23246)"/>
</g>
<defs>
<linearGradient id="paint0_linear_1847_23246" x1="-11.9091" y1="16.5233" x2="38.1418" y2="136.071" gradientUnits="userSpaceOnUse">
<stop stop-color="#FFF6FF"/>
<stop offset="1" stop-color="#6318FF"/>
</linearGradient>
<linearGradient id="paint1_linear_1847_23246" x1="-15.84" y1="-9.06136" x2="42.8671" y2="127.966" gradientUnits="userSpaceOnUse">
<stop stop-color="#FFF6FF"/>
<stop offset="1" stop-color="#6318FF"/>
</linearGradient>
<clipPath id="clip0_1847_23246">
<rect width="36.8657" height="43.9992" fill="white"/>
</clipPath>
</defs>
</svg>
