<svg width="24" height="27" viewBox="0 0 24 27" fill="none" xmlns="http://www.w3.org/2000/svg">
<path d="M19.4164 0.500519L19.4754 0.515116C19.5318 0.529081 19.5927 0.543546 19.656 0.558598C19.7924 0.591007 19.9403 0.626139 20.0803 0.664876M19.4164 0.500519L1.88287 10.2303C0.177406 11.9156 0.0228791 14.5858 1.56691 16.4242L1.56702 16.4243C2.36892 17.3785 3.41672 17.945 4.67357 18.0676L4.67369 18.0676C6.07604 18.204 7.27793 17.7629 8.27304 16.8871C10.3144 18.1387 12.357 19.3891 14.4009 20.6384C14.2179 21.2726 14.1736 21.9391 14.272 22.5931C14.5624 24.6519 16.3683 26.3302 18.4624 26.4863L18.4625 26.4863C21.3858 26.7037 23.7883 24.3023 23.4544 21.3962L23.4543 21.3959C23.2404 19.5453 22.1754 18.2243 20.4298 17.5941C18.6956 16.968 17.0884 17.3377 15.7287 18.5193L9.59673 14.761C9.84248 13.9096 9.83447 13.0661 9.59856 12.2345C9.87886 12.0629 10.1588 11.8915 10.4385 11.7203C12.2105 10.6354 13.9703 9.55811 15.7266 8.47691C16.857 9.47229 18.1993 9.88129 19.7255 9.59934L19.7255 9.59934C21.8473 9.20713 23.4004 7.4108 23.4957 5.26311C23.5894 3.15388 22.1438 1.22104 20.0803 0.664876M19.4164 0.500519L19.3556 0.500489M19.4164 0.500519L19.3556 0.500489M20.0803 0.664876C20.0797 0.664714 20.0791 0.664552 20.0785 0.66439L19.9485 1.14722L20.082 0.665364C20.0814 0.665201 20.0808 0.665038 20.0803 0.664876ZM19.3556 0.500489L18.3684 0.5L18.252 0.499942L18.1475 0.551285C18.1448 0.552631 18.142 0.553878 18.1391 0.555021C15.3428 1.03661 13.6396 3.6695 14.4039 6.36006L19.3556 0.500489ZM5.15559 11.4061L5.15168 11.406C4.87163 11.403 4.59388 11.455 4.33463 11.5591C4.07538 11.6631 3.83997 11.8169 3.64193 12.0113C3.44391 12.2057 3.28722 12.4368 3.18068 12.6911C3.07416 12.9453 3.01984 13.2178 3.02076 13.4927L3.02076 13.4943C3.02076 14.6445 3.95279 15.5814 5.10596 15.5865L5.10641 15.5865C6.29987 15.5929 7.25415 14.654 7.26136 13.507L5.15559 11.4061ZM5.15559 11.4061C6.31666 11.4096 7.26802 12.368 7.26136 13.5069L5.15559 11.4061ZM14.5889 20.7535C14.5888 20.7535 14.5876 20.7528 14.5856 20.7513C14.5879 20.7528 14.589 20.7535 14.5889 20.7535ZM14.4589 6.54311C14.4588 6.54305 14.4583 6.54117 14.4577 6.53767C14.4587 6.54143 14.459 6.54317 14.4589 6.54311ZM20.3443 6.57819L20.695 6.93459L20.3443 6.57819C19.946 6.97009 19.4055 7.19034 18.8416 7.18881C18.2776 7.18729 17.7384 6.96412 17.3423 6.57009C16.9464 6.17624 16.7258 5.64406 16.7273 5.09092C16.7289 4.53777 16.9524 4.00678 17.3505 3.61506C17.5476 3.42106 17.7818 3.26709 18.0397 3.16222C18.2976 3.05734 18.574 3.00369 18.8532 3.00444C19.4172 3.00597 19.9564 3.22914 20.3525 3.62317C20.7484 4.01701 20.969 4.54919 20.9674 5.10234C20.9659 5.65548 20.7424 6.18648 20.3443 6.57819ZM20.0387 23.6343C19.6896 23.8654 19.2785 23.9891 18.8575 23.9891C18.2957 23.9891 17.7577 23.7691 17.3609 23.3788C16.9642 22.9886 16.7407 22.4601 16.7375 21.9091C16.735 21.496 16.8566 21.091 17.0873 20.7455C17.3182 20.3999 17.648 20.1291 18.0358 19.9683C18.4236 19.8073 18.8513 19.7639 19.2644 19.8436C19.6775 19.9234 20.0567 20.1225 20.3541 20.4151C20.6514 20.7075 20.8537 21.0801 20.9361 21.4852C21.0185 21.8904 20.9775 22.3106 20.8181 22.693C20.6586 23.0754 20.3877 23.4032 20.0387 23.6343Z" fill="white" stroke="white"/>
</svg>
