<svg width="25" height="25" viewBox="0 0 25 25" fill="none" xmlns="http://www.w3.org/2000/svg">
<g clip-path="url(#clip0_1847_23220)">
<path d="M25.0001 12.0088V12.7916C24.9845 12.8954 24.9693 12.9991 24.9512 13.1028C24.8265 13.9037 24.7717 14.7232 24.5648 15.5002C23.2274 20.5459 18.9928 24.1463 13.7641 24.7104C11.4387 24.9609 9.21835 24.5587 7.10714 23.5562C6.95588 23.4798 6.78182 23.4615 6.61798 23.5049C5.1505 23.8444 3.67617 24.1737 2.20575 24.5108C1.52093 24.6683 0.836103 24.8366 0.151279 25H0.0534471C0.0550349 24.9434 0.0600993 24.8868 0.0686114 24.8308C0.531683 22.7309 0.996385 20.6313 1.46272 18.5321C1.50924 18.3459 1.48318 18.1489 1.38983 17.9812C0.212424 15.6817 -0.241027 13.2471 0.118016 10.682C0.438416 8.39176 1.3145 6.32368 2.82258 4.56969C6.00457 0.868473 10.0406 -0.603698 14.8447 0.224124C17.8902 0.747627 20.357 2.33184 22.2848 4.73996C23.6848 6.48953 24.555 8.47836 24.8568 10.7059C24.915 11.1389 24.9527 11.5744 25.0001 12.0088ZM2.62056 22.3952C2.72818 22.3781 2.79226 22.3713 2.85438 22.3571C4.22403 22.0469 5.59074 21.7318 6.96333 21.4309C7.10203 21.4073 7.24464 21.4304 7.36884 21.4965C8.57902 22.1609 9.86698 22.5919 11.2366 22.746C13.3816 22.9907 15.4234 22.6262 17.3546 21.6418C21.4312 19.5629 23.7166 14.9228 22.8439 10.4731C21.6802 4.55648 15.779 0.793617 9.93742 2.26677C7.1722 2.96445 5.01891 4.54181 3.50936 6.96362C2.28255 8.93092 1.78801 11.0895 2.01596 13.3978C2.16907 14.9483 2.69051 16.3823 3.47512 17.7277C3.545 17.8508 3.57136 17.9939 3.54996 18.1338C3.3587 19.0551 3.14641 19.9724 2.94341 20.8918C2.8353 21.3795 2.73258 21.8703 2.62056 22.3952Z" fill="#29AD17"/>
<path d="M6.76172 9.61295C6.77884 8.64765 7.16576 7.86142 7.85303 7.20973C7.94511 7.11735 8.05485 7.04449 8.1757 6.99548C8.29656 6.94647 8.42605 6.92233 8.55645 6.92449C8.65419 6.93157 8.75234 6.93075 8.84994 6.92205C9.35965 6.84768 9.6326 7.10747 9.80478 7.55514C10.066 8.22836 10.3492 8.89326 10.6285 9.56109C10.7063 9.74701 10.7264 9.92999 10.6055 10.0949C10.3972 10.3821 10.1863 10.6697 9.95251 10.9359C9.66733 11.2598 9.6507 11.3273 9.8762 11.7006C10.7939 13.2173 12.0647 14.323 13.7102 14.9923C14.0072 15.1132 14.1373 15.0902 14.3491 14.8377C14.6362 14.4952 14.9214 14.1498 15.1914 13.7936C15.3523 13.5808 15.5412 13.4967 15.7813 13.6102C16.5953 13.9942 17.4088 14.3803 18.2105 14.7888C18.3083 14.8377 18.3935 15.0271 18.3925 15.1508C18.3842 15.9733 18.1225 16.6612 17.3882 17.1416C16.5009 17.7224 15.5783 17.741 14.5863 17.5017C11.782 16.8261 9.70842 15.1562 8.09908 12.8259C7.584 12.0803 7.08407 11.3322 6.88499 10.4315C6.82433 10.1614 6.80134 9.88547 6.76172 9.61295Z" fill="#29AD17"/>
</g>
<defs>
<clipPath id="clip0_1847_23220">
<rect width="25" height="25" fill="white"/>
</clipPath>
</defs>
</svg>
