<svg width="223" height="16" viewBox="0 0 223 16" fill="none" xmlns="http://www.w3.org/2000/svg">
<g clip-path="url(#clip0_237_731)">
<path d="M19.0562 7.81654V12.5067H17.5683V0.924149H21.5145C21.9855 0.914309 22.4538 0.99785 22.8924 1.16995C23.331 1.34205 23.7311 1.5993 24.0698 1.92686C24.4118 2.23454 24.6841 2.61186 24.8682 3.03348C25.0523 3.45511 25.144 3.91125 25.1372 4.37127C25.147 4.83375 25.0567 5.29287 24.8724 5.71718C24.6882 6.14149 24.4144 6.52094 24.0698 6.82954C23.3797 7.48754 22.528 7.81623 21.5145 7.81562H19.0562V7.81654ZM19.0562 2.35013V6.39333H21.5514C21.825 6.40144 22.0972 6.35237 22.3507 6.24925C22.6042 6.14613 22.8334 5.99124 23.0236 5.79448C23.2128 5.61051 23.3633 5.39047 23.466 5.14737C23.5687 4.90426 23.6216 4.64303 23.6216 4.37913C23.6216 4.11522 23.5687 3.85399 23.466 3.61088C23.3633 3.36778 23.2128 3.14774 23.0236 2.96377C22.8358 2.76287 22.6074 2.60418 22.3536 2.49823C22.0998 2.39227 21.8264 2.34148 21.5514 2.34921H19.0562V2.35013Z" fill="url(#paint0_linear_237_731)"/>
<path d="M28.5658 4.32324C29.6656 4.32324 30.5337 4.61713 31.1701 5.20489C31.8065 5.79266 32.1245 6.59853 32.1238 7.6225V12.5067H30.7006V11.4069H30.6359C30.0198 12.3126 29.2004 12.7655 28.1777 12.7655C27.3046 12.7655 26.5743 12.5067 25.9865 11.9892C25.7044 11.7516 25.4789 11.4541 25.3264 11.1184C25.1739 10.7827 25.0982 10.4171 25.1048 10.0484C25.1048 9.22838 25.4147 8.57623 26.0345 8.09197C26.6543 7.60771 27.4818 7.36496 28.5168 7.36373C29.4003 7.36373 30.128 7.52546 30.6997 7.84892V7.50883C30.7014 7.25747 30.6471 7.00889 30.5408 6.78111C30.4345 6.55333 30.2789 6.35206 30.0851 6.1919C29.6917 5.83691 29.1789 5.64321 28.649 5.64941C27.8179 5.64941 27.1602 5.99998 26.6759 6.70111L25.3655 5.87583C26.0863 4.84077 27.1531 4.32324 28.5658 4.32324ZM26.6408 10.0808C26.6398 10.2701 26.6841 10.457 26.7699 10.6258C26.8557 10.7946 26.9807 10.9404 27.1343 11.0511C27.4634 11.31 27.8718 11.4471 28.2904 11.4393C28.9183 11.4382 29.5201 11.1883 29.9641 10.7443C30.457 10.2804 30.7034 9.73605 30.7034 9.11132C30.2395 8.74166 29.5926 8.55682 28.7627 8.55682C28.1583 8.55682 27.6543 8.70253 27.2507 8.99395C26.8432 9.28968 26.6408 9.64918 26.6408 10.0808Z" fill="url(#paint1_linear_237_731)"/>
<path d="M40.2934 4.582L35.3251 16H33.7892L35.6329 12.0049L32.366 4.582H33.9832L36.3445 10.2748H36.3768L38.6734 4.582H40.2934Z" fill="url(#paint2_linear_237_731)"/>
<path d="M13.0436 6.80555C13.0442 6.35211 13.0059 5.89946 12.929 5.45258H6.65399V8.01527H10.2481C10.1745 8.42457 10.0188 8.81474 9.79045 9.16226C9.56205 9.50978 9.26565 9.80746 8.91911 10.0373V11.7008H11.0641C12.32 10.5429 13.0436 8.83038 13.0436 6.80555Z" fill="url(#paint3_linear_237_731)"/>
<path d="M6.65399 13.3079C8.44964 13.3079 9.96156 12.7183 11.0641 11.7017L8.91911 10.0382C8.3221 10.443 7.5532 10.6741 6.65399 10.6741C4.91842 10.6741 3.4453 9.50408 2.91853 7.92746H0.708862V9.64178C1.26268 10.7438 2.1119 11.6702 3.16172 12.3176C4.21153 12.965 5.42062 13.3079 6.65399 13.3079Z" fill="url(#paint4_linear_237_731)"/>
<path d="M2.9185 7.92744C2.64002 7.10128 2.64002 6.20662 2.9185 5.38046V3.66614H0.708833C0.242942 4.59321 0.000305176 5.61639 0.000305176 6.65395C0.000305176 7.69151 0.242942 8.71469 0.708833 9.64176L2.9185 7.92744Z" fill="url(#paint5_linear_237_731)"/>
<path d="M6.65399 2.63387C7.60291 2.61837 8.51981 2.97689 9.20652 3.63196L11.1057 1.73281C9.90141 0.601708 8.30604 -0.0192863 6.65399 9.3159e-06C5.42062 6.55281e-05 4.21153 0.342924 3.16172 0.990306C2.1119 1.63769 1.26268 2.56411 0.708862 3.66616L2.91853 5.38048C3.4453 3.80386 4.91842 2.63387 6.65399 2.63387Z" fill="url(#paint6_linear_237_731)"/>
</g>
<path d="M63.4137 2.05858C62.9568 2.60062 62.2261 3.02707 61.4951 2.96613C61.4039 2.23519 61.7632 1.45561 62.1834 0.98052C62.6402 0.426361 63.4381 0.0304241 64.0898 0C64.1629 0.755178 63.8644 1.50434 63.4137 2.05858ZM64.0776 3.10605C63.0179 3.0452 62.1104 3.70911 61.6109 3.70911C61.0993 3.70911 60.3318 3.13656 59.4914 3.15478C58.4012 3.17308 57.3902 3.78826 56.8359 4.76878C55.6909 6.73617 56.5374 9.64137 57.6459 11.2433C58.188 12.035 58.8336 12.9062 59.6864 12.8756C60.4965 12.845 60.8131 12.3517 61.7876 12.3517C62.7682 12.3517 63.0545 12.8756 63.9072 12.8632C64.7902 12.8449 65.3445 12.0715 65.8866 11.2797C66.5017 10.3782 66.7576 9.50739 66.7698 9.45875C66.7515 9.44019 65.0643 8.79476 65.0461 6.84575C65.0279 5.21345 66.3799 4.43996 66.4409 4.39123C65.6794 3.25834 64.4918 3.13656 64.0776 3.10605ZM70.1926 0.90128V12.7721H72.0381V8.7156H74.59C76.9227 8.7156 78.555 7.1138 78.555 4.79937C78.555 2.48494 76.9472 0.90128 74.6511 0.90128H70.1926ZM72.0381 2.45443H74.1637C75.7656 2.45443 76.6793 3.30715 76.6793 4.80547C76.6793 6.30371 75.7657 7.16864 74.1577 7.16864H72.0382L72.0381 2.45443ZM81.9172 12.8633C83.0744 12.8633 84.1463 12.2788 84.6337 11.3468H84.6702V12.772H86.3756V6.86397C86.3756 5.15251 85.0051 4.04411 82.8978 4.04411C80.9426 4.04411 79.493 5.16472 79.4382 6.69956H81.101C81.241 5.96862 81.9172 5.48752 82.8431 5.48752C83.9698 5.48752 84.6032 6.01125 84.6032 6.97974V7.63754L82.3009 7.77754C80.1631 7.90542 79.0059 8.78238 79.0059 10.3052C79.0119 11.8402 80.2057 12.8633 81.9172 12.8633ZM82.4166 11.4565C81.4359 11.4565 80.8085 10.9815 80.8085 10.2626C80.8085 9.51341 81.4116 9.08111 82.5626 9.01399L84.6091 8.88603V9.55612C84.6092 10.6647 83.6653 11.4565 82.4166 11.4565ZM88.6595 16C90.4561 16 91.3027 15.3119 92.0397 13.2348L95.2739 4.15979H93.3979L91.2298 11.1701H91.1932L89.0247 4.15979H87.1001L90.2186 12.8024L90.0481 13.3262C89.7678 14.2154 89.3111 14.5627 88.4949 14.5627C88.3488 14.5627 88.0686 14.5445 87.9529 14.5321V15.9575C88.0625 15.9819 88.5194 16 88.6595 16Z" fill="url(#paint7_linear_237_731)"/>
<path d="M131.992 0.307678L128.607 15.8975H132.71L135.992 0.307678H131.992Z" fill="url(#paint8_linear_237_731)"/>
<path d="M126.043 0.307678L121.838 10.8718L120.094 1.84614C119.889 0.8205 119.069 0.307678 118.248 0.307678H111.376L111.274 0.71796C112.71 1.02565 114.248 1.53846 115.274 2.05128C115.889 2.35898 115.992 2.66666 116.197 3.38461L119.376 15.7949H123.684L130.248 0.205139H126.043V0.307678Z" fill="url(#paint9_linear_237_731)"/>
<path d="M157.941 0.307678H154.453C153.633 0.307678 153.018 0.717973 152.71 1.43592L146.659 15.8975H150.864L151.684 13.5385H156.812L157.325 15.8975H161.018L157.941 0.307678ZM153.018 10.359L155.171 4.51285L156.402 10.359H153.018Z" fill="url(#paint10_linear_237_731)"/>
<path d="M141.325 4.61539C141.325 4.10257 141.838 3.4872 143.069 3.28207C143.684 3.1795 145.223 3.17952 147.069 4.00003L147.787 0.717962C146.864 0.41027 145.53 0 143.992 0C139.992 0 137.223 2.15385 137.223 5.12821C137.223 7.38463 139.274 8.61537 140.71 9.33332C142.248 10.0513 142.761 10.5641 142.761 11.2821C142.761 12.3077 141.53 12.8205 140.299 12.8205C138.248 12.8205 137.12 12.3077 136.197 11.7949L135.479 15.1795C136.402 15.5898 138.146 16 139.992 16C144.197 16 146.966 13.9488 146.966 10.6667C146.966 6.76927 141.223 6.46155 141.325 4.61539Z" fill="url(#paint11_linear_237_731)"/>
<path d="M177.383 13.7404H177.723L177.404 15.0585C177.356 15.2522 177.366 15.4028 177.431 15.4997C177.496 15.5965 177.615 15.6449 177.794 15.6449C177.967 15.6449 178.112 15.5965 178.226 15.4997C178.34 15.4028 178.415 15.2522 178.464 15.0585L178.783 13.7404H179.129L178.805 15.0908C178.734 15.3813 178.61 15.6019 178.426 15.7471C178.248 15.8924 178.01 15.9677 177.718 15.9677C177.426 15.9677 177.226 15.8978 177.118 15.7525C177.01 15.6073 176.988 15.3867 177.058 15.0962L177.383 13.7404ZM179.08 15.9085L179.621 13.6543L180.648 14.9778C180.675 15.0155 180.702 15.0531 180.729 15.0962C180.756 15.1392 180.783 15.1876 180.816 15.2414L181.178 13.7404H181.497L180.956 15.9892L179.908 14.6389L179.826 14.5259C179.799 14.4828 179.778 14.4452 179.762 14.3968L179.399 15.9031H179.08V15.9085ZM181.47 15.9085L181.989 13.7404H182.335L181.816 15.9085H181.47ZM182.308 15.9085L182.827 13.7404H184.011L183.941 14.0417H183.103L182.973 14.5797H183.811L183.735 14.8863H182.897L182.654 15.9031H182.308V15.9085ZM183.876 15.9085L184.395 13.7404H184.741L184.222 15.9085H183.876ZM184.714 15.9085L185.233 13.7404H186.417L186.347 14.0417H185.509L185.379 14.5851H186.217L186.141 14.8917H185.303L185.136 15.5911H185.974L185.898 15.9085H184.714ZM186.298 15.9085L186.817 13.7404H187.282C187.585 13.7404 187.796 13.7565 187.909 13.7888C188.023 13.8211 188.12 13.8695 188.196 13.9448C188.293 14.0417 188.358 14.1654 188.385 14.3107C188.412 14.4613 188.401 14.6335 188.358 14.8218C188.309 15.0155 188.239 15.1822 188.142 15.3329C188.045 15.4835 187.92 15.6019 187.774 15.6987C187.666 15.774 187.547 15.8224 187.417 15.8547C187.293 15.887 187.104 15.9031 186.855 15.9031H186.298V15.9085ZM186.72 15.5857H187.012C187.169 15.5857 187.293 15.575 187.38 15.5535C187.466 15.5319 187.542 15.4943 187.612 15.4459C187.709 15.3759 187.79 15.2898 187.855 15.1822C187.92 15.08 187.969 14.9563 188.001 14.8164C188.034 14.6765 188.045 14.5582 188.028 14.4559C188.012 14.3537 187.974 14.2623 187.909 14.1923C187.861 14.1385 187.801 14.1062 187.72 14.0847C187.639 14.0632 187.515 14.0524 187.336 14.0524H187.088L186.72 15.5857ZM189.948 14.9348L189.715 15.9085H189.391L189.91 13.7404H190.434C190.591 13.7404 190.699 13.7512 190.769 13.7673C190.84 13.7834 190.894 13.8103 190.937 13.8534C190.991 13.9018 191.029 13.9717 191.045 14.0578C191.061 14.1439 191.056 14.2354 191.034 14.3376C191.007 14.4398 190.97 14.5366 190.91 14.6227C190.851 14.7088 190.78 14.7787 190.705 14.8272C190.64 14.8648 190.569 14.8971 190.494 14.9132C190.418 14.9294 190.299 14.9401 190.148 14.9401H189.948V14.9348ZM190.04 14.6442H190.126C190.315 14.6442 190.45 14.6227 190.526 14.5797C190.602 14.5366 190.651 14.4613 190.678 14.3537C190.705 14.2407 190.688 14.1547 190.634 14.1116C190.575 14.0632 190.456 14.0417 190.277 14.0417H190.191L190.04 14.6442ZM192.208 15.9085L192.1 15.349H191.256L190.878 15.9085H190.515L192.083 13.6543L192.57 15.9085H192.208ZM191.462 15.0531H192.051L191.954 14.5582C191.948 14.5259 191.943 14.4882 191.943 14.4506C191.937 14.4075 191.937 14.3645 191.937 14.3161C191.916 14.3645 191.894 14.4075 191.867 14.4506C191.845 14.4936 191.824 14.5313 191.802 14.5635L191.462 15.0531ZM193.067 15.9085L193.305 14.9186L192.873 13.7458H193.235L193.505 14.4828C193.511 14.5044 193.516 14.5259 193.527 14.5582C193.538 14.5904 193.543 14.6227 193.554 14.655L193.619 14.5582C193.64 14.5259 193.662 14.499 193.684 14.4721L194.316 13.7458H194.662L193.651 14.9132L193.413 15.9031H193.067V15.9085ZM196.36 14.8379C196.36 14.8218 196.365 14.7734 196.376 14.698C196.382 14.6335 196.387 14.5851 196.392 14.542C196.371 14.5904 196.349 14.6389 196.322 14.6927C196.295 14.7411 196.263 14.7949 196.225 14.8433L195.392 16L195.122 14.8218C195.111 14.7734 195.1 14.7249 195.095 14.6819C195.089 14.6389 195.084 14.5904 195.084 14.5474C195.073 14.5904 195.057 14.6389 195.041 14.6927C195.025 14.7411 195.003 14.7949 194.976 14.8487L194.489 15.9139H194.17L195.214 13.6543L195.511 15.0208C195.517 15.0424 195.522 15.08 195.527 15.1284C195.533 15.1769 195.544 15.2414 195.554 15.3167C195.592 15.2522 195.641 15.1769 195.706 15.08C195.722 15.0531 195.738 15.037 195.744 15.0208L196.684 13.6543L196.652 15.9139H196.333L196.36 14.8379ZM196.933 15.9085L197.452 13.7404H198.636L198.566 14.0417H197.728L197.598 14.5851H198.436L198.36 14.8917H197.522L197.355 15.5911H198.193L198.117 15.9085H196.933ZM198.512 15.9085L199.052 13.6543L200.08 14.9778C200.107 15.0155 200.134 15.0531 200.161 15.0962C200.188 15.1392 200.215 15.1876 200.247 15.2414L200.61 13.7404H200.929L200.388 15.9892L199.339 14.6389L199.258 14.5259C199.231 14.4828 199.209 14.4452 199.193 14.3968L198.831 15.9031H198.512V15.9085ZM202.032 14.0363L201.583 15.9031H201.237L201.686 14.0363H201.123L201.194 13.735H202.664L202.594 14.0363H202.032ZM202.394 15.4728L202.702 15.3436C202.707 15.4405 202.734 15.5158 202.794 15.5642C202.853 15.6126 202.934 15.6395 203.043 15.6395C203.145 15.6395 203.232 15.6126 203.308 15.5535C203.383 15.4943 203.432 15.419 203.454 15.3221C203.486 15.193 203.41 15.08 203.226 14.9832C203.199 14.967 203.183 14.9563 203.167 14.9509C202.962 14.8325 202.832 14.7303 202.778 14.6335C202.724 14.5366 202.713 14.4237 202.745 14.2892C202.789 14.1116 202.88 13.9717 203.026 13.8588C203.172 13.7512 203.335 13.692 203.529 13.692C203.686 13.692 203.81 13.7243 203.902 13.7834C203.994 13.8426 204.043 13.9341 204.059 14.0471L203.756 14.1869C203.729 14.117 203.697 14.0686 203.654 14.0363C203.61 14.004 203.556 13.9879 203.491 13.9879C203.399 13.9879 203.318 14.0148 203.253 14.0632C203.189 14.1116 203.145 14.1762 203.124 14.2623C203.091 14.3914 203.183 14.5151 203.394 14.6281C203.41 14.6389 203.421 14.6442 203.432 14.6496C203.616 14.7465 203.74 14.8433 203.794 14.9401C203.848 15.037 203.859 15.15 203.827 15.2952C203.778 15.4997 203.675 15.6611 203.518 15.7848C203.362 15.9031 203.178 15.9677 202.962 15.9677C202.783 15.9677 202.643 15.9247 202.545 15.8386C202.437 15.7525 202.388 15.6288 202.394 15.4728ZM204.94 15.9085L205.459 13.7404H205.805L205.286 15.9085H204.94ZM205.784 15.9085L206.324 13.6543L207.352 14.9778C207.379 15.0155 207.406 15.0531 207.433 15.0962C207.46 15.1392 207.487 15.1876 207.519 15.2414L207.882 13.7404H208.201L207.66 15.9892L206.611 14.6389L206.53 14.5259C206.503 14.4828 206.481 14.4452 206.465 14.3968L206.103 15.9031H205.784V15.9085ZM209.304 14.0363L208.855 15.9031H208.509L208.958 14.0363H208.395L208.465 13.735H209.936L209.866 14.0363H209.304ZM209.677 15.9085L210.196 13.7404H211.385L211.315 14.0417H210.477L210.347 14.5851H211.185L211.109 14.8917H210.271L210.104 15.5911H210.942L210.866 15.9085H209.677ZM211.812 14.9348L211.58 15.9031H211.255L211.774 13.735H212.256C212.396 13.735 212.504 13.7458 212.575 13.7619C212.65 13.7781 212.71 13.8103 212.753 13.8534C212.807 13.9072 212.839 13.9717 212.856 14.0578C212.872 14.1385 212.867 14.23 212.845 14.3322C212.802 14.5044 212.731 14.6442 212.623 14.7411C212.515 14.8379 212.38 14.8971 212.218 14.9186L212.71 15.9031H212.32L211.85 14.9348H211.812ZM211.899 14.6604H211.964C212.147 14.6604 212.272 14.6389 212.342 14.5958C212.412 14.5528 212.461 14.4775 212.488 14.3645C212.515 14.2461 212.504 14.16 212.45 14.1116C212.396 14.0632 212.283 14.0363 212.11 14.0363H212.045L211.899 14.6604ZM212.921 15.9085L213.44 13.7404H214.624L214.553 14.0417H213.715L213.586 14.5797H214.424L214.348 14.8863H213.51L213.267 15.9031H212.921V15.9085ZM215.775 15.9085L215.667 15.349H214.824L214.445 15.9085H214.083L215.651 13.6543L216.138 15.9085H215.775ZM215.024 15.0531H215.613L215.516 14.5582C215.51 14.5259 215.505 14.4882 215.505 14.4506C215.5 14.4075 215.5 14.3645 215.5 14.3161C215.478 14.3645 215.456 14.4075 215.429 14.4506C215.408 14.4936 215.386 14.5313 215.364 14.5635L215.024 15.0531ZM218.387 14.2676C218.311 14.1816 218.219 14.117 218.122 14.0793C218.024 14.0363 217.916 14.0148 217.792 14.0148C217.56 14.0148 217.354 14.0901 217.17 14.2407C216.986 14.3914 216.867 14.5904 216.808 14.8325C216.754 15.0639 216.776 15.2576 216.884 15.4136C216.986 15.5642 217.149 15.6395 217.365 15.6395C217.489 15.6395 217.614 15.618 217.738 15.5696C217.862 15.5266 217.987 15.4566 218.116 15.3652L218.019 15.7633C217.911 15.8332 217.797 15.8816 217.678 15.9139C217.56 15.9462 217.441 15.9623 217.311 15.9623C217.149 15.9623 217.003 15.9354 216.878 15.8816C216.754 15.8278 216.651 15.7471 216.57 15.6395C216.489 15.5373 216.44 15.4136 216.419 15.2737C216.397 15.1338 216.402 14.9832 216.446 14.8218C216.484 14.6604 216.548 14.5151 216.635 14.3752C216.721 14.2354 216.835 14.1116 216.965 14.0094C217.095 13.9018 217.235 13.8211 217.386 13.7673C217.538 13.7135 217.689 13.6866 217.846 13.6866C217.97 13.6866 218.084 13.7027 218.192 13.7404C218.295 13.7781 218.392 13.8319 218.479 13.9072L218.387 14.2676ZM218.419 15.9085L218.938 13.7404H220.122L220.052 14.0417H219.214L219.084 14.5851H219.922L219.847 14.8917H219.008L218.841 15.5911H219.679L219.603 15.9085H218.419Z" fill="#E0E6F0"/>
<path d="M212.126 11.852H209.752L213.05 0H215.424L212.126 11.852ZM210.893 0.371217C210.731 0.145258 210.477 0.0322796 210.131 0.0322796H197.09L196.446 2.35642H208.309L207.617 4.83658H198.128V4.8312H195.754L193.786 11.9058H196.16L197.479 7.16072H208.146C208.482 7.16072 208.795 7.04774 209.087 6.82178C209.379 6.59582 209.574 6.31607 209.666 5.98251L210.985 1.23739C211.088 0.882313 211.055 0.597175 210.893 0.371217ZM192.402 11.1096C192.273 11.5777 191.84 11.9058 191.353 11.9058H179.118C178.783 11.9058 178.534 11.7929 178.372 11.5669C178.21 11.3409 178.172 11.0612 178.269 10.7276L181.254 0.0322796H183.627L180.962 9.58708H190.456L193.121 0.0322796H195.495L192.402 11.1096Z" fill="#E0E6F0"/>
<path d="M219.522 0.0215149L222.523 5.96098L216.213 11.9005L219.522 0.0215149Z" fill="#E0E6F0"/>
<path d="M217.414 0.0215149L220.414 5.96098L214.099 11.9005L217.414 0.0215149Z" fill="#E0E6F0"/>
<defs>
<linearGradient id="paint0_linear_237_731" x1="21.3531" y1="0.92337" x2="21.3531" y2="12.5067" gradientUnits="userSpaceOnUse">
<stop stop-color="#F4F6FA"/>
<stop offset="1" stop-color="#C6D1E3"/>
</linearGradient>
<linearGradient id="paint1_linear_237_731" x1="28.6141" y1="4.32324" x2="28.6141" y2="12.7655" gradientUnits="userSpaceOnUse">
<stop stop-color="#F4F6FA"/>
<stop offset="1" stop-color="#C6D1E3"/>
</linearGradient>
<linearGradient id="paint2_linear_237_731" x1="36.3297" y1="4.582" x2="36.3297" y2="16" gradientUnits="userSpaceOnUse">
<stop stop-color="#F4F6FA"/>
<stop offset="1" stop-color="#C6D1E3"/>
</linearGradient>
<linearGradient id="paint3_linear_237_731" x1="9.84882" y1="5.45258" x2="9.84882" y2="11.7008" gradientUnits="userSpaceOnUse">
<stop stop-color="#F4F6FA"/>
<stop offset="1" stop-color="#C6D1E3"/>
</linearGradient>
<linearGradient id="paint4_linear_237_731" x1="5.88647" y1="7.92746" x2="5.88647" y2="13.3079" gradientUnits="userSpaceOnUse">
<stop stop-color="#F4F6FA"/>
<stop offset="1" stop-color="#C6D1E3"/>
</linearGradient>
<linearGradient id="paint5_linear_237_731" x1="1.4594" y1="3.66614" x2="1.4594" y2="9.64176" gradientUnits="userSpaceOnUse">
<stop stop-color="#F4F6FA"/>
<stop offset="1" stop-color="#C6D1E3"/>
</linearGradient>
<linearGradient id="paint6_linear_237_731" x1="5.90727" y1="-0.000427246" x2="5.90727" y2="5.38048" gradientUnits="userSpaceOnUse">
<stop stop-color="#F4F6FA"/>
<stop offset="1" stop-color="#C6D1E3"/>
</linearGradient>
<linearGradient id="paint7_linear_237_731" x1="75.7823" y1="0" x2="75.7823" y2="16" gradientUnits="userSpaceOnUse">
<stop stop-color="#F4F6FA"/>
<stop offset="1" stop-color="#C6D1E3"/>
</linearGradient>
<linearGradient id="paint8_linear_237_731" x1="132.299" y1="0.307678" x2="132.299" y2="15.8975" gradientUnits="userSpaceOnUse">
<stop stop-color="#F4F6FA"/>
<stop offset="1" stop-color="#C6D1E3"/>
</linearGradient>
<linearGradient id="paint9_linear_237_731" x1="120.761" y1="0.205139" x2="120.761" y2="15.7949" gradientUnits="userSpaceOnUse">
<stop stop-color="#F4F6FA"/>
<stop offset="1" stop-color="#C6D1E3"/>
</linearGradient>
<linearGradient id="paint10_linear_237_731" x1="153.838" y1="0.307678" x2="153.838" y2="15.8975" gradientUnits="userSpaceOnUse">
<stop stop-color="#F4F6FA"/>
<stop offset="1" stop-color="#C6D1E3"/>
</linearGradient>
<linearGradient id="paint11_linear_237_731" x1="141.633" y1="0" x2="141.633" y2="16" gradientUnits="userSpaceOnUse">
<stop stop-color="#F4F6FA"/>
<stop offset="1" stop-color="#C6D1E3"/>
</linearGradient>
<clipPath id="clip0_237_731">
<rect width="40.2906" height="16" fill="white"/>
</clipPath>
</defs>
</svg>
