<svg width="314" height="17" viewBox="0 0 314 17" fill="none" xmlns="http://www.w3.org/2000/svg">
<g clip-path="url(#clip0_73_4035)">
<path d="M19.2678 8.11388V12.804H17.7799V1.22148H21.7261C22.1971 1.21164 22.6655 1.29518 23.104 1.46728C23.5426 1.63938 23.9428 1.89664 24.2814 2.2242C24.6235 2.53187 24.8957 2.90919 25.0798 3.33082C25.2639 3.75244 25.3556 4.20859 25.3488 4.6686C25.3586 5.13108 25.2683 5.59021 25.0841 6.01451C24.8998 6.43882 24.626 6.81828 24.2814 7.12687C23.5914 7.78487 22.7396 8.11357 21.7261 8.11295H19.2678V8.11388ZM19.2678 2.64746V6.69067H21.7631C22.0366 6.69878 22.3089 6.6497 22.5624 6.54658C22.8159 6.44346 23.045 6.28857 23.2353 6.09181C23.4245 5.90785 23.5749 5.6878 23.6776 5.4447C23.7803 5.2016 23.8332 4.94037 23.8332 4.67646C23.8332 4.41255 23.7803 4.15132 23.6776 3.90821C23.5749 3.66511 23.4245 3.44507 23.2353 3.26111C23.0474 3.0602 22.819 2.90151 22.5652 2.79556C22.3114 2.68961 22.038 2.63881 21.7631 2.64654H19.2678V2.64746Z" fill="url(#paint0_linear_73_4035)"/>
<path d="M28.7775 4.62061C29.8772 4.62061 30.7453 4.91449 31.3817 5.50226C32.0182 6.09002 32.3361 6.89589 32.3355 7.91986V12.8041H30.9123V11.7043H30.8476C30.2315 12.61 29.4121 13.0628 28.3893 13.0628C27.5163 13.0628 26.7859 12.8041 26.1981 12.2865C25.9161 12.049 25.6905 11.7515 25.538 11.4158C25.3855 11.08 25.3098 10.7145 25.3165 10.3458C25.3165 9.52574 25.6264 8.87359 26.2462 8.38933C26.866 7.90507 27.6934 7.66233 28.7285 7.6611C29.612 7.6611 30.3396 7.82282 30.9113 8.14628V7.80619C30.913 7.55483 30.8588 7.30625 30.7525 7.07847C30.6462 6.85069 30.4905 6.64942 30.2968 6.48926C29.9033 6.13427 29.3905 5.94057 28.8606 5.94678C28.0295 5.94678 27.3718 6.29734 26.8875 6.99847L25.5771 6.1732C26.2979 5.13814 27.3647 4.62061 28.7775 4.62061ZM26.8524 10.3781C26.8514 10.5675 26.8957 10.7544 26.9815 10.9231C27.0674 11.0919 27.1923 11.2378 27.3459 11.3485C27.675 11.6074 28.0835 11.7445 28.5021 11.7366C29.1299 11.7356 29.7318 11.4857 30.1757 11.0417C30.6686 10.5777 30.915 10.0334 30.915 9.40868C30.4511 9.03902 29.8042 8.85419 28.9743 8.85419C28.3699 8.85419 27.8659 8.9999 27.4624 9.29132C27.0548 9.58705 26.8524 9.94655 26.8524 10.3781Z" fill="url(#paint1_linear_73_4035)"/>
<path d="M40.5051 4.87939L35.5368 16.2974H34.0008L35.8445 12.3023L32.5776 4.87939H34.1949L36.5561 10.5722H36.5885L38.885 4.87939H40.5051Z" fill="url(#paint2_linear_73_4035)"/>
<path d="M13.2552 7.10297C13.2558 6.64953 13.2175 6.19688 13.1407 5.75H6.8656V8.3127H10.4597C10.3861 8.722 10.2305 9.11217 10.0021 9.45969C9.77366 9.80721 9.47726 10.1049 9.13072 10.3348V11.9983H11.2757C12.5316 10.8403 13.2552 9.12781 13.2552 7.10297Z" fill="url(#paint3_linear_73_4035)"/>
<path d="M6.8656 13.6053C8.66124 13.6053 10.1732 13.0157 11.2757 11.9991L9.13072 10.3356C8.53371 10.7404 7.76481 10.9715 6.8656 10.9715C5.13002 10.9715 3.65691 9.80147 3.13014 8.22485H0.920471V9.93917C1.47429 11.0412 2.32351 11.9676 3.37332 12.615C4.42314 13.2624 5.63223 13.6053 6.8656 13.6053Z" fill="url(#paint4_linear_73_4035)"/>
<path d="M3.13011 8.22481C2.85163 7.39865 2.85163 6.50398 3.13011 5.67782V3.9635H0.920442C0.45455 4.89058 0.211914 5.91376 0.211914 6.95131C0.211914 7.98887 0.45455 9.01205 0.920442 9.93913L3.13011 8.22481Z" fill="url(#paint5_linear_73_4035)"/>
<path d="M6.8656 2.93129C7.81452 2.91579 8.73142 3.27432 9.41813 3.92939L11.3173 2.03024C10.113 0.899133 8.51765 0.278138 6.8656 0.297434C5.63223 0.29749 4.42314 0.640348 3.37333 1.28773C2.32351 1.93511 1.47429 2.86154 0.920471 3.96358L3.13014 5.6779C3.65691 4.10128 5.13002 2.93129 6.8656 2.93129Z" fill="url(#paint6_linear_73_4035)"/>
</g>
<path d="M53.6253 2.35594C53.1685 2.89798 52.4377 3.32443 51.7068 3.2635C51.6155 2.53256 51.9748 1.75297 52.3951 1.27788C52.8519 0.723724 53.6497 0.327787 54.3015 0.297363C54.3745 1.05254 54.076 1.8017 53.6253 2.35594ZM54.2892 3.40341C53.2295 3.34257 52.322 4.00647 51.8225 4.00647C51.3109 4.00647 50.5434 3.43392 49.703 3.45214C48.6128 3.47045 47.6018 4.08562 47.0476 5.06614C45.9025 7.03354 46.7491 9.93874 47.8576 11.5406C48.3996 12.3323 49.0452 13.2035 49.898 13.1729C50.7081 13.1423 51.0247 12.649 51.9992 12.649C52.9798 12.649 53.2662 13.1729 54.1188 13.1606C55.0019 13.1422 55.5561 12.3688 56.0982 11.5771C56.7133 10.6755 56.9692 9.80475 56.9814 9.75611C56.9632 9.73755 55.276 9.09212 55.2577 7.14312C55.2395 5.51081 56.5916 4.73733 56.6525 4.6886C55.891 3.5557 54.7034 3.43392 54.2892 3.40341ZM60.4042 1.19864V13.0694H62.2498V9.01297H64.8016C67.1344 9.01297 68.7667 7.41117 68.7667 5.09674C68.7667 2.78231 67.1588 1.19864 64.8628 1.19864H60.4042ZM62.2498 2.7518H64.3754C65.9773 2.7518 66.8909 3.60452 66.8909 5.10284C66.8909 6.60107 65.9773 7.466 64.3694 7.466H62.2498L62.2498 2.7518ZM72.1288 13.1606C73.2861 13.1606 74.3579 12.5761 74.8453 11.6442H74.8818V13.0694H76.5872V7.16133C76.5872 5.44988 75.2168 4.34147 73.1094 4.34147C71.1543 4.34147 69.7047 5.46208 69.6498 6.99693H71.3126C71.4527 6.26599 72.1288 5.78488 73.0547 5.78488C74.1814 5.78488 74.8148 6.30861 74.8148 7.2771V7.9349L72.5125 8.0749C70.3748 8.20279 69.2175 9.07974 69.2175 10.6026C69.2236 12.1376 70.4173 13.1606 72.1288 13.1606ZM72.6283 11.7538C71.6476 11.7538 71.0202 11.2788 71.0202 10.5599C71.0202 9.81077 71.6232 9.37848 72.7743 9.31136L74.8207 9.18339V9.85348C74.8208 10.9621 73.8769 11.7538 72.6283 11.7538ZM78.8711 16.2974C80.6678 16.2974 81.5144 15.6092 82.2513 13.5322L85.4855 4.45715H83.6096L81.4414 11.4675H81.4049L79.2364 4.45715H77.3118L80.4303 13.0998L80.2597 13.6236C79.9794 14.5128 79.5227 14.8601 78.7065 14.8601C78.5604 14.8601 78.2803 14.8418 78.1645 14.8295V16.2548C78.2742 16.2792 78.731 16.2974 78.8711 16.2974Z" fill="url(#paint7_linear_73_4035)"/>
<g opacity="0.8">
<path d="M128.718 1.81395L132.509 1.13149V15.8424H128.718V1.81395ZM134.784 1.81395V15.8424H138.575V1.13149L134.784 1.81395ZM123.409 15.8424H127.201V5.22627H123.409V15.8424ZM97.4758 6.66703C96.945 6.66703 95.8076 6.5912 95.8076 5.52959C95.8076 4.31632 97.4758 4.31632 98.0825 4.31632C99.1441 4.31632 100.585 4.61964 101.571 4.92296C101.571 4.92296 102.253 5.15044 102.708 5.3021H102.86V5.22627V1.88978L102.708 1.81395C101.495 1.4348 100.054 0.979827 97.5516 0.979827C93.1535 1.13149 91.5611 3.70969 91.5611 5.90874C91.5611 7.19784 92.0919 10.1552 97.1725 10.5343C97.6275 10.5343 98.7649 10.6102 98.7649 11.6718C98.7649 12.5817 97.7033 13.0367 96.1109 13.0367C94.3668 13.0367 93.0777 12.5817 91.5611 12.2026V15.6907C93.0777 16.0699 94.8976 16.2974 96.945 16.2974C101.267 16.2974 103.239 13.8708 103.239 11.4443C103.239 8.71443 101.116 6.97035 97.4758 6.66703ZM121.059 4.99879C117.419 5.07462 115.827 6.74286 115.827 9.9277V15.8424H119.618V11.0651C119.618 9.1694 119.618 8.33528 121.893 8.25945V5.07461C121.893 4.92296 121.059 4.99879 121.059 4.99879ZM110.518 5.22627C110.443 5.22627 109.76 7.12201 108.244 8.94191V1.13149L104.452 1.96561V15.8424H108.244V11.7476C109.76 13.4917 110.063 15.8424 110.063 15.8424H114.917C114.462 14.3258 112.338 10.3827 112.338 10.3827C114.234 8.03196 115.068 5.22627 115.144 5.22627H110.518ZM125.305 4.08883C126.367 4.08883 127.201 3.25471 127.201 2.1931C127.201 1.13149 126.367 0.297363 125.305 0.297363C124.244 0.297363 123.409 1.13149 123.409 2.1931C123.409 3.25471 124.244 4.08883 125.305 4.08883Z" fill="url(#paint8_linear_73_4035)"/>
</g>
<path d="M130.234 1.51063L132.509 1.13149V15.8424H128.718L130.234 1.51063ZM136.149 1.58646L134.784 15.8424H138.576V1.13149L136.149 1.58646ZM123.41 15.8424H127.201V5.22627H125.609L123.41 15.8424ZM91.5613 5.90874C91.5613 7.19784 92.0921 10.1552 97.0969 10.5343C97.5519 10.5343 99.3718 10.6102 99.3718 11.6718C99.3718 12.5817 97.5519 13.0367 96.0353 13.0367C94.2912 13.0367 93.0021 12.5817 91.4855 12.2026V15.6907C93.0021 16.0699 94.822 16.2974 96.8694 16.2974C101.192 16.2974 103.163 13.8708 103.163 11.4443C103.163 8.71443 101.04 6.97035 97.4002 6.66703C96.8694 6.66703 95.8078 6.5912 95.8078 5.52959C95.8078 4.31632 97.476 4.31632 98.0827 4.31632C99.1443 4.31632 100.585 4.61964 101.571 4.92296C101.571 4.92296 102.253 5.15044 102.708 5.3021H102.86V5.22627V1.88978L102.708 1.81395C101.495 1.4348 100.054 0.979827 97.5519 0.979827M115.827 9.77604V15.8424H119.618V11.0651C119.618 9.1694 119.618 8.33528 121.893 8.25945V5.07461C121.893 4.99878 121.059 4.99879 121.059 4.99879M104.452 15.8424H108.244V11.7476C109.76 13.4917 111.504 15.8424 111.504 15.8424H114.841C114.386 14.3258 112.263 10.3827 112.263 10.3827C114.158 8.03196 114.993 5.22627 115.068 5.22627H112.794C112.718 5.22627 109.76 7.12201 108.244 8.94191V1.4348M125.305 4.08883C126.367 4.08883 127.201 3.25471 127.201 2.1931C127.201 1.13149 126.367 0.297363 125.305 0.297363" fill="url(#paint9_linear_73_4035)"/>
<path d="M165.294 0.605103L161.909 16.1949H166.011L169.293 0.605103H165.294Z" fill="url(#paint10_linear_73_4035)"/>
<path d="M159.345 0.605103L155.14 11.1692L153.396 2.14357C153.191 1.11792 152.37 0.605103 151.55 0.605103H144.678L144.576 1.01538C146.011 1.32308 147.55 1.83589 148.576 2.34871C149.191 2.6564 149.294 2.96408 149.499 3.68203L152.678 16.0923H156.986L163.55 0.502563H159.345V0.605103Z" fill="url(#paint11_linear_73_4035)"/>
<path d="M191.242 0.605103H187.755C186.935 0.605103 186.319 1.0154 186.011 1.73335L179.96 16.1949H184.165L184.986 13.8359H190.114L190.627 16.1949H194.319L191.242 0.605103ZM186.319 10.6564L188.473 4.81028L189.704 10.6564H186.319Z" fill="url(#paint12_linear_73_4035)"/>
<path d="M174.627 4.91276C174.627 4.39993 175.14 3.78456 176.37 3.57943C176.986 3.47687 178.524 3.47688 180.37 4.29739L181.088 1.01533C180.165 0.707633 178.832 0.297363 177.294 0.297363C173.294 0.297363 170.524 2.45121 170.524 5.42558C170.524 7.68199 172.576 8.91274 174.011 9.63069C175.55 10.3486 176.063 10.8615 176.063 11.5794C176.063 12.6051 174.832 13.1179 173.601 13.1179C171.55 13.1179 170.422 12.6051 169.499 12.0923L168.781 15.4769C169.704 15.8871 171.447 16.2974 173.294 16.2974C177.499 16.2974 180.268 14.2461 180.268 10.9641C180.268 7.06663 174.524 6.75891 174.627 4.91276Z" fill="url(#paint13_linear_73_4035)"/>
<path d="M211.946 12.7937C211.361 12.7937 210.811 12.5659 210.398 12.1525L208.161 9.91623C208.004 9.75881 207.731 9.75928 207.574 9.91623L205.329 12.1606C204.916 12.5741 204.366 12.8018 203.781 12.8018H203.34L206.172 15.634C207.057 16.5185 208.491 16.5185 209.375 15.634L212.216 12.7937H211.946Z" fill="url(#paint14_linear_73_4035)"/>
<path d="M203.781 4.88379C204.366 4.88379 204.916 5.11154 205.329 5.52498L207.574 7.76974C207.735 7.93144 207.999 7.93205 208.161 7.76955L210.398 5.53316C210.811 5.11973 211.361 4.89198 211.946 4.89198H212.216L209.375 2.05172C208.491 1.16717 207.057 1.16717 206.172 2.05172L203.34 4.8838L203.781 4.88379Z" fill="url(#paint15_linear_73_4035)"/>
<path d="M214.565 7.24127L212.849 5.5249C212.811 5.54003 212.77 5.54948 212.727 5.54948H211.946C211.543 5.54948 211.148 5.71313 210.863 5.99842L208.627 8.23461C208.417 8.44387 208.142 8.54857 207.868 8.54857C207.593 8.54857 207.318 8.44387 207.109 8.23481L204.864 5.99025C204.579 5.70489 204.184 5.54131 203.781 5.54131H202.821C202.78 5.54131 202.742 5.53167 202.706 5.51807L200.983 7.24127C200.098 8.12582 200.098 9.55985 200.983 10.4444L202.706 12.1675C202.742 12.1539 202.78 12.1443 202.821 12.1443H203.781C204.184 12.1443 204.579 11.9807 204.864 11.6954L207.109 9.45107C207.514 9.04574 208.221 9.0456 208.627 9.45126L210.863 11.6872C211.148 11.9725 211.543 12.1362 211.946 12.1362H212.727C212.77 12.1362 212.811 12.1456 212.849 12.1608L214.565 10.4444C215.449 9.55984 215.449 8.12582 214.565 7.24127Z" fill="url(#paint16_linear_73_4035)"/>
<path d="M218.895 15.2373V6.06142C218.895 4.37305 220.263 3.00439 221.952 3.00439L224.661 3.00848C226.344 3.01182 227.707 4.37746 227.707 6.06095V8.01405C227.707 9.70242 226.339 11.0711 224.65 11.0711H220.822" stroke="url(#paint17_linear_73_4035)" stroke-width="2.53753" stroke-miterlimit="10" stroke-linecap="round" stroke-linejoin="round"/>
<path d="M228.464 3.00317H229.64C230.332 3.00317 230.894 3.56485 230.894 4.25775V11.1121" stroke="url(#paint18_linear_73_4035)" stroke-width="2.53753" stroke-miterlimit="10" stroke-linecap="round" stroke-linejoin="round"/>
<path d="M233.149 11.0522H234.314C234.914 11.0522 235.489 10.814 235.913 10.3901L238.639 7.66403C238.992 7.31088 239.564 7.31088 239.918 7.66403L242.634 10.3801C243.058 10.804 243.632 11.0422 244.232 11.0422H245.18" stroke="url(#paint19_linear_73_4035)" stroke-width="2.53753" stroke-miterlimit="10" stroke-linecap="round" stroke-linejoin="round"/>
<path d="M230.642 1.94124L230.109 1.40824C229.977 1.27601 229.977 1.06159 230.109 0.929357L230.642 0.396686C230.774 0.264256 230.989 0.264256 231.121 0.396686L231.654 0.929357C231.786 1.06159 231.786 1.27601 231.654 1.40824L231.121 1.94124C230.989 2.07347 230.774 2.07347 230.642 1.94124Z" fill="url(#paint20_linear_73_4035)"/>
<path d="M233.149 2.99707H234.314C234.914 2.99707 235.489 3.23527 235.913 3.65916L238.639 6.38521C238.992 6.73836 239.564 6.73836 239.918 6.38521L242.634 3.66914C243.058 3.24525 243.632 3.00705 244.232 3.00705H245.18" stroke="url(#paint21_linear_73_4035)" stroke-width="2.53753" stroke-miterlimit="10" stroke-linecap="round" stroke-linejoin="round"/>
<path d="M299.577 4.47119H296.198C295.999 4.47119 295.801 4.66995 295.701 4.86871L294.31 13.6141C294.31 13.8128 294.409 13.9122 294.608 13.9122H296.397C296.596 13.9122 296.695 13.8128 296.695 13.6141L297.093 11.1296C297.093 10.9308 297.291 10.7321 297.59 10.7321H298.683C300.968 10.7321 302.26 9.63889 302.558 7.45256C302.757 6.55815 302.558 5.76312 302.161 5.26622C301.565 4.76933 300.67 4.47119 299.577 4.47119ZM299.975 7.75069C299.776 8.94324 298.881 8.94324 297.987 8.94324H297.391L297.788 6.65753C297.788 6.55815 297.888 6.45877 298.086 6.45877H298.285C298.881 6.45877 299.478 6.45877 299.776 6.85628C299.975 6.95566 299.975 7.2538 299.975 7.75069Z" fill="url(#paint22_linear_73_4035)"/>
<path d="M275.229 4.47119H271.85C271.651 4.47119 271.453 4.66995 271.353 4.86871L269.962 13.6141C269.962 13.8128 270.061 13.9122 270.26 13.9122H271.85C272.049 13.9122 272.248 13.7134 272.347 13.5147L272.745 11.1296C272.745 10.9308 272.943 10.7321 273.241 10.7321H274.335C276.62 10.7321 277.912 9.63889 278.21 7.45256C278.409 6.55815 278.21 5.76312 277.813 5.26622C277.217 4.76933 276.422 4.47119 275.229 4.47119ZM275.627 7.75069C275.428 8.94324 274.533 8.94324 273.639 8.94324H273.142L273.54 6.65753C273.54 6.55815 273.639 6.45877 273.838 6.45877H274.036C274.633 6.45877 275.229 6.45877 275.527 6.85628C275.627 6.95566 275.726 7.2538 275.627 7.75069Z" fill="url(#paint23_linear_73_4035)"/>
<path d="M285.465 7.65139H283.875C283.776 7.65139 283.577 7.75077 283.577 7.85015L283.478 8.34704L283.378 8.14829C282.981 7.65139 282.285 7.45264 281.49 7.45264C279.701 7.45264 278.111 8.84394 277.813 10.7321C277.614 11.7259 277.913 12.6203 278.409 13.2166C278.906 13.8129 279.602 14.0116 280.496 14.0116C281.987 14.0116 282.782 13.1172 282.782 13.1172L282.683 13.6141C282.683 13.8129 282.782 13.9123 282.981 13.9123H284.472C284.67 13.9123 284.869 13.7135 284.968 13.5147L285.863 7.94953C285.763 7.85015 285.565 7.65139 285.465 7.65139ZM283.18 10.8315C282.981 11.7259 282.285 12.4216 281.291 12.4216C280.795 12.4216 280.397 12.2228 280.198 12.0241C280 11.7259 279.9 11.3284 279.9 10.8315C280 9.93711 280.795 9.24146 281.689 9.24146C282.186 9.24146 282.484 9.44022 282.782 9.63897C283.08 9.93711 283.18 10.434 283.18 10.8315Z" fill="url(#paint24_linear_73_4035)"/>
<path d="M309.714 7.65139H308.123C308.024 7.65139 307.825 7.75077 307.825 7.85015L307.726 8.34704L307.627 8.14829C307.229 7.65139 306.533 7.45264 305.738 7.45264C303.95 7.45264 302.359 8.84394 302.061 10.7321C301.863 11.7259 302.161 12.6203 302.658 13.2166C303.155 13.8129 303.85 14.0116 304.745 14.0116C306.235 14.0116 307.03 13.1172 307.03 13.1172L306.931 13.6141C306.931 13.8129 307.03 13.9123 307.229 13.9123H308.72C308.918 13.9123 309.117 13.7135 309.217 13.5147L310.111 7.94953C310.012 7.85015 309.912 7.65139 309.714 7.65139ZM307.428 10.8315C307.229 11.7259 306.533 12.4216 305.54 12.4216C305.043 12.4216 304.645 12.2228 304.446 12.0241C304.248 11.7259 304.148 11.3284 304.148 10.8315C304.248 9.93711 305.043 9.24146 305.937 9.24146C306.434 9.24146 306.732 9.44022 307.03 9.63897C307.428 9.93711 307.527 10.434 307.428 10.8315Z" fill="url(#paint25_linear_73_4035)"/>
<path d="M294.111 7.65137H292.422C292.223 7.65137 292.124 7.75075 292.024 7.85013L289.838 11.229L288.844 8.04888C288.745 7.85012 288.646 7.75075 288.347 7.75075H286.757C286.559 7.75075 286.459 7.9495 286.459 8.14826L288.248 13.4153L286.559 15.8004C286.459 15.9992 286.559 16.2973 286.757 16.2973H288.347C288.546 16.2973 288.646 16.198 288.745 16.0986L294.211 8.24764C294.509 7.9495 294.31 7.65137 294.111 7.65137Z" fill="url(#paint26_linear_73_4035)"/>
<path d="M311.602 4.76936L310.211 13.7135C310.211 13.9122 310.31 14.0116 310.509 14.0116H311.9C312.099 14.0116 312.298 13.8128 312.397 13.6141L313.788 4.86874C313.788 4.66998 313.689 4.5706 313.49 4.5706H311.9C311.801 4.47122 311.701 4.5706 311.602 4.76936Z" fill="url(#paint27_linear_73_4035)"/>
<g opacity="0.8">
<path d="M262.608 1.48991C261.913 0.69488 260.621 0.297363 258.832 0.297363H253.863C253.565 0.297363 253.267 0.5955 253.167 0.893637L251.18 13.9123C251.18 14.2104 251.378 14.4092 251.577 14.4092H254.658L255.453 9.5396V9.73836C255.552 9.44022 255.85 9.14209 256.149 9.14209H257.639C260.521 9.14209 262.708 7.94954 263.403 4.67003C263.403 4.57066 263.403 4.47128 263.403 4.3719C263.304 4.3719 263.304 4.3719 263.403 4.3719C263.503 3.07997 263.304 2.28494 262.608 1.48991Z" fill="url(#paint28_linear_73_4035)"/>
</g>
<path d="M263.304 4.37195C263.304 4.47133 263.304 4.57071 263.304 4.67008C262.608 8.04897 260.422 9.14214 257.54 9.14214H256.049C255.751 9.14214 255.453 9.44027 255.354 9.73841L254.36 15.8005C254.36 15.9993 254.459 16.198 254.758 16.198H257.341C257.639 16.198 257.938 15.9993 257.938 15.7011V15.6018L258.435 12.521V12.3223C258.435 12.0241 258.733 11.8254 259.031 11.8254H259.428C261.913 11.8254 263.9 10.8316 264.397 7.85021C264.596 6.65766 264.497 5.56449 263.9 4.86884C263.801 4.67008 263.602 4.47133 263.304 4.37195Z" fill="url(#paint29_linear_73_4035)"/>
<path d="M262.608 4.07377C262.509 4.07377 262.409 3.97439 262.31 3.97439C262.211 3.97439 262.111 3.97439 262.012 3.87501C261.614 3.77564 261.217 3.77563 260.72 3.77563H256.844C256.745 3.77563 256.645 3.77564 256.546 3.87501C256.347 3.97439 256.248 4.17315 256.248 4.37191L255.453 9.53961V9.73837C255.552 9.44023 255.85 9.1421 256.148 9.1421H257.639C260.521 9.1421 262.707 7.94955 263.403 4.67004C263.403 4.57067 263.403 4.47129 263.502 4.37191C263.304 4.27253 263.204 4.17315 263.006 4.17315C262.707 4.07377 262.707 4.07377 262.608 4.07377Z" fill="url(#paint30_linear_73_4035)"/>
<defs>
<linearGradient id="paint0_linear_73_4035" x1="21.5647" y1="1.2207" x2="21.5647" y2="12.804" gradientUnits="userSpaceOnUse">
<stop stop-color="#F4F6FA"/>
<stop offset="1" stop-color="#C6D1E3"/>
</linearGradient>
<linearGradient id="paint1_linear_73_4035" x1="28.8258" y1="4.62061" x2="28.8258" y2="13.0628" gradientUnits="userSpaceOnUse">
<stop stop-color="#F4F6FA"/>
<stop offset="1" stop-color="#C6D1E3"/>
</linearGradient>
<linearGradient id="paint2_linear_73_4035" x1="36.5413" y1="4.87939" x2="36.5413" y2="16.2974" gradientUnits="userSpaceOnUse">
<stop stop-color="#F4F6FA"/>
<stop offset="1" stop-color="#C6D1E3"/>
</linearGradient>
<linearGradient id="paint3_linear_73_4035" x1="10.0604" y1="5.75" x2="10.0604" y2="11.9983" gradientUnits="userSpaceOnUse">
<stop stop-color="#F4F6FA"/>
<stop offset="1" stop-color="#C6D1E3"/>
</linearGradient>
<linearGradient id="paint4_linear_73_4035" x1="6.09808" y1="8.22485" x2="6.09808" y2="13.6053" gradientUnits="userSpaceOnUse">
<stop stop-color="#F4F6FA"/>
<stop offset="1" stop-color="#C6D1E3"/>
</linearGradient>
<linearGradient id="paint5_linear_73_4035" x1="1.67101" y1="3.9635" x2="1.67101" y2="9.93913" gradientUnits="userSpaceOnUse">
<stop stop-color="#F4F6FA"/>
<stop offset="1" stop-color="#C6D1E3"/>
</linearGradient>
<linearGradient id="paint6_linear_73_4035" x1="6.11888" y1="0.296997" x2="6.11888" y2="5.6779" gradientUnits="userSpaceOnUse">
<stop stop-color="#F4F6FA"/>
<stop offset="1" stop-color="#C6D1E3"/>
</linearGradient>
<linearGradient id="paint7_linear_73_4035" x1="65.9939" y1="0.297363" x2="65.9939" y2="16.2974" gradientUnits="userSpaceOnUse">
<stop stop-color="#F4F6FA"/>
<stop offset="1" stop-color="#C6D1E3"/>
</linearGradient>
<linearGradient id="paint8_linear_73_4035" x1="115.068" y1="0.297363" x2="115.068" y2="16.2974" gradientUnits="userSpaceOnUse">
<stop stop-color="#F4F6FA"/>
<stop offset="1" stop-color="#C6D1E3"/>
</linearGradient>
<linearGradient id="paint9_linear_73_4035" x1="115.031" y1="0.297363" x2="115.031" y2="16.2974" gradientUnits="userSpaceOnUse">
<stop stop-color="#F4F6FA"/>
<stop offset="1" stop-color="#C6D1E3"/>
</linearGradient>
<linearGradient id="paint10_linear_73_4035" x1="165.601" y1="0.605103" x2="165.601" y2="16.1949" gradientUnits="userSpaceOnUse">
<stop stop-color="#F4F6FA"/>
<stop offset="1" stop-color="#C6D1E3"/>
</linearGradient>
<linearGradient id="paint11_linear_73_4035" x1="154.063" y1="0.502563" x2="154.063" y2="16.0923" gradientUnits="userSpaceOnUse">
<stop stop-color="#F4F6FA"/>
<stop offset="1" stop-color="#C6D1E3"/>
</linearGradient>
<linearGradient id="paint12_linear_73_4035" x1="187.14" y1="0.605103" x2="187.14" y2="16.1949" gradientUnits="userSpaceOnUse">
<stop stop-color="#F4F6FA"/>
<stop offset="1" stop-color="#C6D1E3"/>
</linearGradient>
<linearGradient id="paint13_linear_73_4035" x1="174.935" y1="0.297363" x2="174.935" y2="16.2974" gradientUnits="userSpaceOnUse">
<stop stop-color="#F4F6FA"/>
<stop offset="1" stop-color="#C6D1E3"/>
</linearGradient>
<linearGradient id="paint14_linear_73_4035" x1="207.778" y1="9.79834" x2="207.778" y2="16.2974" gradientUnits="userSpaceOnUse">
<stop stop-color="#F4F6FA"/>
<stop offset="1" stop-color="#C6D1E3"/>
</linearGradient>
<linearGradient id="paint15_linear_73_4035" x1="207.778" y1="1.38831" x2="207.778" y2="7.89122" gradientUnits="userSpaceOnUse">
<stop stop-color="#F4F6FA"/>
<stop offset="1" stop-color="#C6D1E3"/>
</linearGradient>
<linearGradient id="paint16_linear_73_4035" x1="207.774" y1="5.51807" x2="207.774" y2="12.1675" gradientUnits="userSpaceOnUse">
<stop stop-color="#F4F6FA"/>
<stop offset="1" stop-color="#C6D1E3"/>
</linearGradient>
<linearGradient id="paint17_linear_73_4035" x1="223.301" y1="3.00439" x2="223.301" y2="15.2373" gradientUnits="userSpaceOnUse">
<stop stop-color="#F4F6FA"/>
<stop offset="1" stop-color="#C6D1E3"/>
</linearGradient>
<linearGradient id="paint18_linear_73_4035" x1="229.679" y1="3.00317" x2="229.679" y2="11.1121" gradientUnits="userSpaceOnUse">
<stop stop-color="#F4F6FA"/>
<stop offset="1" stop-color="#C6D1E3"/>
</linearGradient>
<linearGradient id="paint19_linear_73_4035" x1="239.164" y1="7.39917" x2="239.164" y2="11.0522" gradientUnits="userSpaceOnUse">
<stop stop-color="#F4F6FA"/>
<stop offset="1" stop-color="#C6D1E3"/>
</linearGradient>
<linearGradient id="paint20_linear_73_4035" x1="230.882" y1="0.297363" x2="230.882" y2="2.04041" gradientUnits="userSpaceOnUse">
<stop stop-color="#F4F6FA"/>
<stop offset="1" stop-color="#C6D1E3"/>
</linearGradient>
<linearGradient id="paint21_linear_73_4035" x1="239.164" y1="2.99707" x2="239.164" y2="6.65007" gradientUnits="userSpaceOnUse">
<stop stop-color="#F4F6FA"/>
<stop offset="1" stop-color="#C6D1E3"/>
</linearGradient>
<linearGradient id="paint22_linear_73_4035" x1="298.473" y1="4.47119" x2="298.473" y2="13.9122" gradientUnits="userSpaceOnUse">
<stop stop-color="#F4F6FA"/>
<stop offset="1" stop-color="#C6D1E3"/>
</linearGradient>
<linearGradient id="paint23_linear_73_4035" x1="274.125" y1="4.47119" x2="274.125" y2="13.9122" gradientUnits="userSpaceOnUse">
<stop stop-color="#F4F6FA"/>
<stop offset="1" stop-color="#C6D1E3"/>
</linearGradient>
<linearGradient id="paint24_linear_73_4035" x1="281.807" y1="7.45264" x2="281.807" y2="14.0116" gradientUnits="userSpaceOnUse">
<stop stop-color="#F4F6FA"/>
<stop offset="1" stop-color="#C6D1E3"/>
</linearGradient>
<linearGradient id="paint25_linear_73_4035" x1="306.055" y1="7.45264" x2="306.055" y2="14.0116" gradientUnits="userSpaceOnUse">
<stop stop-color="#F4F6FA"/>
<stop offset="1" stop-color="#C6D1E3"/>
</linearGradient>
<linearGradient id="paint26_linear_73_4035" x1="290.411" y1="7.65137" x2="290.411" y2="16.2973" gradientUnits="userSpaceOnUse">
<stop stop-color="#F4F6FA"/>
<stop offset="1" stop-color="#C6D1E3"/>
</linearGradient>
<linearGradient id="paint27_linear_73_4035" x1="311.999" y1="4.53162" x2="311.999" y2="14.0116" gradientUnits="userSpaceOnUse">
<stop stop-color="#F4F6FA"/>
<stop offset="1" stop-color="#C6D1E3"/>
</linearGradient>
<linearGradient id="paint28_linear_73_4035" x1="257.303" y1="0.297363" x2="257.303" y2="14.4092" gradientUnits="userSpaceOnUse">
<stop stop-color="#F4F6FA"/>
<stop offset="1" stop-color="#C6D1E3"/>
</linearGradient>
<linearGradient id="paint29_linear_73_4035" x1="259.425" y1="4.37195" x2="259.425" y2="16.198" gradientUnits="userSpaceOnUse">
<stop stop-color="#F4F6FA"/>
<stop offset="1" stop-color="#C6D1E3"/>
</linearGradient>
<linearGradient id="paint30_linear_73_4035" x1="259.478" y1="3.77563" x2="259.478" y2="9.73837" gradientUnits="userSpaceOnUse">
<stop stop-color="#F4F6FA"/>
<stop offset="1" stop-color="#C6D1E3"/>
</linearGradient>
<clipPath id="clip0_73_4035">
<rect width="40.2906" height="16" fill="white" transform="translate(0.211639 0.297363)"/>
</clipPath>
</defs>
</svg>
