<svg width="31" height="31" viewBox="0 0 31 31" fill="none" xmlns="http://www.w3.org/2000/svg">
<path d="M11.1444 7.33107V7.75387V8.23826C11.0779 8.23826 11.0187 8.23826 10.9607 8.23826C8.15605 8.23826 5.35139 8.23826 2.54794 8.23826C2.33889 8.23826 2.15159 8.28059 2.04404 8.47531C1.99812 8.55997 1.97154 8.66519 1.97154 8.76195C1.96792 11.1301 1.96792 13.4994 1.96912 15.8675C1.96912 15.9074 1.97275 15.9461 1.97517 15.9812C2.30264 16.0393 2.62528 16.0852 2.94187 16.1566C3.86508 16.3658 4.6892 16.7819 5.42389 17.3757C5.43114 17.3817 5.4396 17.389 5.44685 17.3951C5.58219 17.5104 5.72115 17.516 5.86374 17.412C7.24372 16.4033 9.20976 17.1157 9.62544 18.7799C9.65686 18.9032 9.70036 18.9262 9.81758 18.9129C11.5335 18.7134 12.9908 19.947 13.085 21.6765C13.0863 21.7056 13.0887 21.7358 13.0899 21.7757C13.137 21.7781 13.1805 21.7842 13.224 21.7842C14.5931 21.7842 15.9634 21.7842 17.3325 21.7866C17.4389 21.7866 17.4908 21.7612 17.521 21.6499C17.9101 20.2361 19.3698 19.4971 20.7341 20.0293C20.8827 20.0873 20.9432 20.0595 21.0278 19.9301C21.7866 18.7593 22.8681 18.1026 24.2505 17.9429C24.8704 17.8716 25.4734 17.9526 26.0643 18.1473C26.1187 18.1655 26.2081 18.1473 26.2528 18.1123C27.3911 17.2088 27.7174 17.0334 29.0333 16.6319V16.4722C29.0333 13.9275 29.0333 11.3828 29.0333 8.83815C29.0333 8.41726 28.8581 8.24309 28.4364 8.24309C25.6474 8.24309 22.8572 8.24309 20.0683 8.24309H19.8605V7.27432H20.0175C22.8476 7.27432 25.6764 7.27432 28.5064 7.27432C29.3729 7.27432 30 7.90566 30 8.77405C30 13.8937 30 19.0145 30 24.1341C30 25.0412 29.3801 25.6581 28.469 25.6581C25.0154 25.6581 21.5606 25.6581 18.1071 25.6581C18.0479 25.6581 17.9887 25.6581 17.9234 25.6581V27.1082C17.9778 27.1082 18.031 27.1082 18.0841 27.1082C18.6484 27.1082 19.2115 27.1082 19.7759 27.1082C20.1456 27.1082 20.3317 27.2969 20.3329 27.667C20.3329 28.1193 20.3329 28.5716 20.3329 29.0361H21.2876V30H9.70761V29.0457H10.6659C10.6659 28.9816 10.6659 28.9284 10.6659 28.8752C10.6659 28.4616 10.6659 28.0492 10.6659 27.6355C10.6659 27.3078 10.8628 27.1094 11.1939 27.1082C11.7631 27.1058 12.3322 27.1082 12.9002 27.1082H13.073V25.6581C13.015 25.6581 12.9521 25.6581 12.8893 25.6581C9.43573 25.6581 5.98096 25.6581 2.5274 25.6581C1.62111 25.6544 1 25.034 1 24.1281C1 19.0133 1 13.8985 1 8.78372C1 7.89719 1.62594 7.27069 2.51169 7.27069C5.33085 7.27069 8.15001 7.27069 10.9704 7.27069C11.0248 7.27069 11.0791 7.27069 11.1444 7.27069V7.33107ZM29.0333 22.7626H1.96792C1.96792 23.2319 1.96792 23.6891 1.96792 24.1474C1.96792 24.197 1.96792 24.249 1.97879 24.2974C2.03558 24.5623 2.22047 24.6857 2.55881 24.6857C11.1927 24.6857 19.8254 24.6857 28.4593 24.6857C28.4992 24.6857 28.5403 24.6881 28.5802 24.6844C28.8279 24.6639 29.0248 24.4825 29.0297 24.2357C29.0393 23.7483 29.0321 23.2597 29.0321 22.7626H29.0333ZM12.1256 21.7769C12.1111 21.6644 12.1026 21.5653 12.0869 21.4661C11.9226 20.4235 10.9486 19.7112 9.90337 19.8793C9.71124 19.9095 9.52756 19.9869 9.33906 20.0341C8.96567 20.126 8.69257 19.8636 8.71311 19.4826C8.7252 19.2673 8.70465 19.0327 8.62732 18.8343C8.21284 17.7748 6.8377 17.5874 6.13321 18.4811C6.06071 18.5731 5.96887 18.6662 5.86616 18.7146C5.63053 18.827 5.44081 18.7158 5.27526 18.5452C4.73511 17.9865 4.0983 17.5728 3.37447 17.2922C2.92737 17.1193 2.46456 17.0177 1.97758 16.9754V21.7769H12.1268H12.1256ZM18.4986 21.7721H29.026V17.6478C28.9717 17.6636 28.9294 17.6744 28.8871 17.6877C28.0738 17.9381 27.3585 18.3602 26.7664 18.9698C26.509 19.2346 26.2649 19.2612 25.929 19.133C24.6638 18.6505 23.5001 18.8585 22.4585 19.7233C22.0609 20.0534 21.7757 20.4731 21.5727 20.9472C21.4906 21.1383 21.3576 21.2605 21.145 21.2822C20.983 21.2992 20.8562 21.223 20.7329 21.1286C20.3486 20.8311 19.9185 20.7428 19.4532 20.8795C18.9953 21.0137 18.6859 21.3149 18.501 21.7721H18.4986ZM11.6422 29.0288H19.3602V28.0806H11.6422V29.0288ZM16.9446 25.6641H14.065V27.0961H16.9446V25.6641Z" fill="url(#paint0_linear_89_72)" stroke="url(#paint1_linear_89_72)" stroke-width="0.5"/>
<path d="M18.4021 14.0437C18.4021 14.1997 18.4021 14.3351 18.4021 14.4706C18.4009 14.8165 18.2063 15.0088 17.8571 15.0112C17.6263 15.0112 17.3943 15.0112 17.1405 15.0112C17.2058 15.2084 17.2674 15.391 17.3266 15.5748C17.3544 15.6607 17.3834 15.7466 17.4064 15.8337C17.4946 16.1675 17.294 16.4565 16.952 16.4602C15.9853 16.4674 15.0186 16.4686 14.0519 16.4602C13.7087 16.4577 13.5045 16.1675 13.5976 15.8361C13.6737 15.5664 13.7667 15.3015 13.8598 15.0124C13.6193 15.0124 13.3958 15.0124 13.171 15.0124C12.7831 15.0124 12.6006 14.8274 12.6006 14.4367C12.6006 14.3122 12.6006 14.1864 12.6006 14.0449C12.5342 14.0449 12.481 14.0449 12.4266 14.0449C11.5506 14.0449 10.6745 14.0449 9.79839 14.0449C9.39721 14.0449 9.2087 13.8647 9.21837 13.4655C9.25341 11.8424 9.8129 10.4262 10.927 9.24333C11.4309 8.70875 11.9614 8.19715 12.4834 7.6795C12.5692 7.59484 12.6018 7.50776 12.6031 7.38802C12.6115 6.83893 12.597 6.28741 12.6502 5.74316C12.7384 4.83244 13.0876 4.01364 13.6193 3.27103C14.0942 2.60825 14.5679 1.94425 15.0404 1.27905C15.1467 1.13029 15.2687 1.01055 15.4657 1.00088C15.6252 0.993622 15.7763 1.02991 15.8693 1.16295C16.5243 2.09907 17.2614 2.97834 17.8124 3.9834C18.2184 4.7248 18.3912 5.53513 18.4009 6.37933C18.4045 6.71193 18.4069 7.04453 18.3985 7.37713C18.396 7.48961 18.4347 7.56218 18.5169 7.63475C19.0244 8.07862 19.5561 8.50072 20.0262 8.98208C21.0617 10.0416 21.6321 11.3284 21.7554 12.8088C21.7747 13.0446 21.7807 13.2817 21.7831 13.5175C21.7856 13.8465 21.5862 14.0449 21.2575 14.0461C20.3669 14.0473 19.4751 14.0461 18.5846 14.0461C18.5302 14.0461 18.4758 14.0461 18.4009 14.0461L18.4021 14.0437ZM17.4233 12.1013V6.31644H13.577V12.1013H17.4233ZM18.413 8.84783V13.0664H20.8044C20.9119 11.7445 19.6068 9.4441 18.413 8.84783ZM12.5934 13.0664V8.96515C11.321 10.0537 10.3434 11.3067 10.2141 13.0664H12.5934ZM15.502 2.28169C14.8627 3.29643 13.9927 4.12732 13.7184 5.32106H17.2855C17.0064 4.12249 16.1436 3.2928 15.5032 2.28169H15.502ZM13.5758 14.0328H17.4221V13.0834H13.5758V14.0328ZM16.2802 15.4865C16.2282 15.3354 16.1871 15.2011 16.134 15.0729C16.1219 15.0439 16.0675 15.0149 16.0324 15.0149C15.6808 15.01 15.3292 15.01 14.9775 15.0149C14.9401 15.0149 14.8821 15.039 14.8712 15.0681C14.8168 15.2011 14.7757 15.3402 14.725 15.4878H16.2802V15.4865Z" fill="url(#paint2_linear_89_72)" stroke="url(#paint3_linear_89_72)" stroke-width="0.1"/>
<path d="M15.4994 16.9452C16.5506 16.9536 17.1766 17.9889 16.8733 18.821C16.6944 19.3109 16.4443 19.762 16.1676 20.1998C16.0842 20.3316 16.002 20.4647 15.909 20.5893C15.6854 20.888 15.3229 20.9025 15.109 20.6013C14.7187 20.051 14.3731 19.4766 14.1351 18.8392C13.8149 17.9792 14.465 16.956 15.4994 16.9452ZM15.503 19.4306C15.7048 19.127 15.8413 18.8234 15.9525 18.5066C16.019 18.3179 15.9537 18.1715 15.8256 18.0433C15.6782 17.897 15.4571 17.874 15.2673 17.9768C15.1103 18.0615 14.9882 18.2647 15.0281 18.411C15.1235 18.7666 15.277 19.0968 15.503 19.4306Z" fill="url(#paint4_linear_89_72)" stroke="url(#paint5_linear_89_72)" stroke-width="0.1"/>
<path d="M12.1075 16.4553H11.1589V14.5383H12.1075V16.4553Z" fill="url(#paint6_linear_89_72)" stroke="url(#paint7_linear_89_72)" stroke-width="0.2"/>
<path d="M19.84 16.4565H18.8938V14.5347H19.84V16.4565Z" fill="url(#paint8_linear_89_72)" stroke="url(#paint9_linear_89_72)" stroke-width="0.2"/>
<path d="M10.6573 15.4878H9.70874V14.5383H10.6573V15.4878Z" fill="url(#paint10_linear_89_72)" stroke="url(#paint11_linear_89_72)" stroke-width="0.2"/>
<path d="M21.2911 15.4878H20.3425V14.5383H21.2911V15.4878Z" fill="url(#paint12_linear_89_72)" stroke="url(#paint13_linear_89_72)" stroke-width="0.2"/>
<path d="M14.5184 8.73099L14.0505 8.73171H14.5184C14.5234 9.25486 14.9454 9.68863 15.4723 9.70321L15.4728 9.70322C15.4793 9.70339 15.4858 9.70351 15.4924 9.70355C15.4924 9.70355 15.4924 9.70355 15.4924 9.70355C16.0336 9.70746 16.4779 9.27544 16.4827 8.73012L14.5184 8.73099Z" fill="url(#paint14_linear_89_72)" stroke="url(#paint15_linear_89_72)"/>
<defs>
<linearGradient id="paint0_linear_89_72" x1="112.162" y1="113.928" x2="-24.44" y2="40.81" gradientUnits="userSpaceOnUse">
<stop stop-color="#6318FF"/>
<stop offset="1" stop-color="#FFF6FF"/>
</linearGradient>
<linearGradient id="paint1_linear_89_72" x1="112.162" y1="113.928" x2="-24.44" y2="40.81" gradientUnits="userSpaceOnUse">
<stop stop-color="#6318FF"/>
<stop offset="1" stop-color="#FFF6FF"/>
</linearGradient>
<linearGradient id="paint2_linear_89_72" x1="57.3822" y1="73.5743" x2="-10.8372" y2="50.3228" gradientUnits="userSpaceOnUse">
<stop stop-color="#6318FF"/>
<stop offset="1" stop-color="#FFF6FF"/>
</linearGradient>
<linearGradient id="paint3_linear_89_72" x1="57.3822" y1="73.5743" x2="-10.8372" y2="50.3228" gradientUnits="userSpaceOnUse">
<stop stop-color="#6318FF"/>
<stop offset="1" stop-color="#FFF6FF"/>
</linearGradient>
<linearGradient id="paint4_linear_89_72" x1="25.1573" y1="35.1295" x2="9.17414" y2="30.117" gradientUnits="userSpaceOnUse">
<stop stop-color="#6318FF"/>
<stop offset="1" stop-color="#FFF6FF"/>
</linearGradient>
<linearGradient id="paint5_linear_89_72" x1="25.1573" y1="35.1295" x2="9.17414" y2="30.117" gradientUnits="userSpaceOnUse">
<stop stop-color="#6318FF"/>
<stop offset="1" stop-color="#FFF6FF"/>
</linearGradient>
<linearGradient id="paint6_linear_89_72" x1="14.795" y1="23.5338" x2="9.28412" y2="22.3898" gradientUnits="userSpaceOnUse">
<stop stop-color="#6318FF"/>
<stop offset="1" stop-color="#FFF6FF"/>
</linearGradient>
<linearGradient id="paint7_linear_89_72" x1="14.795" y1="23.5338" x2="9.28412" y2="22.3898" gradientUnits="userSpaceOnUse">
<stop stop-color="#6318FF"/>
<stop offset="1" stop-color="#FFF6FF"/>
</linearGradient>
<linearGradient id="paint8_linear_89_72" x1="22.5206" y1="23.5529" x2="17.0215" y2="22.417" gradientUnits="userSpaceOnUse">
<stop stop-color="#6318FF"/>
<stop offset="1" stop-color="#FFF6FF"/>
</linearGradient>
<linearGradient id="paint9_linear_89_72" x1="22.5206" y1="23.5529" x2="17.0215" y2="22.417" gradientUnits="userSpaceOnUse">
<stop stop-color="#6318FF"/>
<stop offset="1" stop-color="#FFF6FF"/>
</linearGradient>
<linearGradient id="paint10_linear_89_72" x1="13.3448" y1="18.9935" x2="8.45544" y2="16.9441" gradientUnits="userSpaceOnUse">
<stop stop-color="#6318FF"/>
<stop offset="1" stop-color="#FFF6FF"/>
</linearGradient>
<linearGradient id="paint11_linear_89_72" x1="13.3448" y1="18.9935" x2="8.45544" y2="16.9441" gradientUnits="userSpaceOnUse">
<stop stop-color="#6318FF"/>
<stop offset="1" stop-color="#FFF6FF"/>
</linearGradient>
<linearGradient id="paint12_linear_89_72" x1="23.9786" y1="18.9935" x2="19.0892" y2="16.9441" gradientUnits="userSpaceOnUse">
<stop stop-color="#6318FF"/>
<stop offset="1" stop-color="#FFF6FF"/>
</linearGradient>
<linearGradient id="paint13_linear_89_72" x1="23.9786" y1="18.9935" x2="19.0892" y2="16.9441" gradientUnits="userSpaceOnUse">
<stop stop-color="#6318FF"/>
<stop offset="1" stop-color="#FFF6FF"/>
</linearGradient>
<linearGradient id="paint14_linear_89_72" x1="25.1672" y1="20.8961" x2="10.2169" y2="14.6324" gradientUnits="userSpaceOnUse">
<stop stop-color="#6318FF"/>
<stop offset="1" stop-color="#FFF6FF"/>
</linearGradient>
<linearGradient id="paint15_linear_89_72" x1="25.1672" y1="20.8961" x2="10.2169" y2="14.6324" gradientUnits="userSpaceOnUse">
<stop stop-color="#6318FF"/>
<stop offset="1" stop-color="#FFF6FF"/>
</linearGradient>
</defs>
</svg>
