<svg id="info" xmlns="http://www.w3.org/2000/svg" width="14.066" height="14.066" viewBox="0 0 14.066 14.066">
  <path id="Path_3585"  d="M16.5,15.609a.639.639,0,0,1,1.279,0v3.836a.639.639,0,0,1-1.279,0Z" transform="translate(-10.106 -9.216)" fill="#6352e8"/>
  <path id="Path_3586"  d="M17.139,9.076a.639.639,0,1,0,.639.639A.639.639,0,0,0,17.139,9.076Z" transform="translate(-10.106 -5.495)" fill="#6352e8"/>
  <path id="Path_3587"  d="M10.033,3a7.033,7.033,0,1,0,7.033,7.033A7.033,7.033,0,0,0,10.033,3ZM4.407,10.033a5.627,5.627,0,1,0,5.627-5.627,5.627,5.627,0,0,0-5.627,5.627Z" transform="translate(-3 -3)" fill="#6352e8" fill-rule="evenodd"/>
</svg>
