<svg id="notifications" xmlns="http://www.w3.org/2000/svg" width="18.838" height="22.263" viewBox="0 0 18.838 22.263">
  <path id="android-notifications-none" d="M15.1,7.254a7.732,7.732,0,0,1,1.279.24,5.455,5.455,0,0,1,4.157,5.344v6.829l.5.5.417.419H8.638l.417-.419.5-.5v-6.83a5.454,5.454,0,0,1,4.157-5.344,9.483,9.483,0,0,1,1.279-.24m.053-3.878a1.636,1.636,0,0,0-1.662,1.67v.779a7.215,7.215,0,0,0-5.54,7.013V18.96L5.625,21.185V22.3H24.463V21.185l-2.216-2.226V12.837a7.215,7.215,0,0,0-5.54-7.013V5.045A1.636,1.636,0,0,0,15.044,3.375ZM17.26,23.412H12.828a2.216,2.216,0,1,0,4.433,0Z" transform="translate(-5.625 -3.375)" fill="#6352e8"/>
</svg>
