<svg id="paiduser" xmlns="http://www.w3.org/2000/svg" width="16.5" height="16.5" viewBox="0 0 16.5 16.5">
  <g id="approval" transform="translate(-2.25 -2.25)">
    <path id="Path_3653" d="M10.5,2.25l1.846,1.414,2.279-.314.864,2.161,2.161.864-.314,2.279L18.75,10.5l-1.414,1.846.314,2.279-2.161.864-.864,2.161-2.279-.314L10.5,18.75,8.654,17.336l-2.279.314-.864-2.161L3.35,14.625l.314-2.279L2.25,10.5,3.664,8.654,3.35,6.375l2.161-.864L6.375,3.35l2.279.314Z" transform="translate(0 0)" fill="#8bc34a"/>
    <path id="Path_3654" d="M18.093,10.95,12.75,16.293l-2.2-2.2-1.1,1.1,3.3,3.3,6.443-6.443Z" transform="translate(-3.429 -4.143)" fill="#ccff90"/>
  </g>
</svg>
