<svg width="727" height="771" viewBox="0 0 727 771" fill="none" xmlns="http://www.w3.org/2000/svg">
  <path fill-rule="evenodd" clip-rule="evenodd" d="M0 354.571L309.552 399.049L0 443.967V491L318.001 416.965L0 593.2V651L321.375 436.936C225.913 548.294 130.455 659.649 35 771H100.805L337.37 446.665C295.58 554.765 253.79 662.861 212 770.954L258.447 771C290.263 665.504 322.086 560.009 353.915 454.513C349.963 560.019 345.991 665.514 342 771H384C380.058 665.551 376.097 560.099 372.117 454.644C403.919 560.086 435.722 665.538 467.524 771H514C472.167 662.775 430.335 554.554 388.502 446.337L626.004 771H692L404.016 436.047L727 652V594.014C621.033 535.076 515.081 476.13 409.142 417.177L726.942 491L727 444.008L416.61 399.054L727 354.577V308L411.339 380.596C516.539 322.048 621.759 263.507 727 204.974V147L401.862 364.405L715 0H645.598L389.417 350.393C434.608 233.574 479.802 116.776 525 0H476.103C441.397 114.873 406.711 229.746 372.045 344.619L385 0H341L353.957 344.667C319.278 229.792 284.615 114.903 249.97 0H201C246.101 116.667 291.233 233.326 336.396 349.979L81.213 0H12L323.439 363.431C215.643 291.617 107.83 219.807 0 148V205.754C105.301 264.104 210.572 322.454 315.811 380.805L0 308V354.571Z" fill="url(#paint0_linear_1847_27080)"/>
  <defs>
    <linearGradient id="paint0_linear_1847_27080" x1="357.508" y1="-5" x2="357.508" y2="771" gradientUnits="userSpaceOnUse">
      <stop stop-color="#7137FE"/>
      <stop offset="1" stop-color="#18083E"/>
    </linearGradient>
  </defs>
</svg>