<svg xmlns="http://www.w3.org/2000/svg" xmlns:xlink="http://www.w3.org/1999/xlink" width="92" height="92" viewBox="0 0 90 104">><defs><style>.cls-1{isolation:isolate;}.cls-2,.cls-3,.cls-4{fill:#232356;}.cls-10,.cls-11,.cls-13,.cls-14,.cls-15,.cls-17,.cls-18,.cls-3,.cls-4,.cls-6,.cls-7,.cls-8{mix-blend-mode:overlay;}.cls-10,.cls-13,.cls-14,.cls-3,.cls-6,.cls-7{opacity:0.3;}.cls-11,.cls-15,.cls-4,.cls-8{opacity:0.22;}.cls-5{fill:url(#radial-gradient);}.cls-6{fill:url(#radial-gradient-2);}.cls-7{fill:url(#radial-gradient-3);}.cls-8{fill:url(#radial-gradient-4);}.cls-10,.cls-11,.cls-9{fill:#1b1b1c;}.cls-12{fill:url(#radial-gradient-5);}.cls-13{fill:url(#radial-gradient-6);}.cls-14{fill:url(#radial-gradient-7);}.cls-15{fill:url(#radial-gradient-8);}.cls-16{fill:#fff;}.cls-17{fill:url(#radial-gradient-9);}.cls-18{fill:url(#radial-gradient-10);}</style><radialGradient id="radial-gradient" cx="1800.03" cy="2028.67" r="73.75" gradientTransform="matrix(0.75, -0.5, -0.5, -0.75, -271.83, 2495.69)" gradientUnits="userSpaceOnUse"><stop offset="0.01" stop-color="#2946a3"/><stop offset="0.69" stop-color="#263ea4"/><stop offset="1" stop-color="#2339a5"/></radialGradient><radialGradient id="radial-gradient-2" cx="1982.08" cy="346.33" r="71.41" gradientTransform="matrix(-0.48, -0.76, -0.76, 0.48, 1286.67, 1383.83)" gradientUnits="userSpaceOnUse"><stop offset="0" stop-color="#1e1e1e" stop-opacity="0"/><stop offset="0.87"/></radialGradient><radialGradient id="radial-gradient-3" cx="-5695.25" cy="3.91" r="71.46" gradientTransform="matrix(0.58, 0.69, -0.69, 0.58, 3404.17, 3944.5)" gradientUnits="userSpaceOnUse"><stop offset="0" stop-color="#1e1e1e" stop-opacity="0"/><stop offset="0.98"/></radialGradient><radialGradient id="radial-gradient-4" cx="-2929.49" cy="-6019.72" r="135.9" gradientTransform="matrix(0.88, 0.21, -0.21, 0.88, 1386.94, 5904.27)" gradientUnits="userSpaceOnUse"><stop offset="0.14" stop-color="#1e1e1e" stop-opacity="0"/><stop offset="0.34"/><stop offset="0.53"/><stop offset="0.95" stop-color="#1e1e1e" stop-opacity="0"/></radialGradient><radialGradient id="radial-gradient-5" cx="1598.69" cy="2088.92" r="59" gradientTransform="matrix(-0.56, -0.83, -0.83, 0.56, 2699.42, 208.56)" gradientUnits="userSpaceOnUse"><stop offset="0" stop-color="#2946a3"/><stop offset="0.31" stop-color="#2641a4"/><stop offset="0.99" stop-color="#2339a5"/></radialGradient><radialGradient id="radial-gradient-6" cx="1801.02" cy="454.8" r="57.13" gradientTransform="matrix(-0.84, 0.54, 0.54, 0.84, 1321.91, -1314.83)" xlink:href="#radial-gradient-2"/><radialGradient id="radial-gradient-7" cx="-5532.3" cy="139.4" r="57.17" gradientTransform="translate(4167.09 -3667.6) rotate(-40.38)" xlink:href="#radial-gradient-3"/><radialGradient id="radial-gradient-8" cx="-2927.29" cy="-5801.41" r="108.72" gradientTransform="translate(6348.36 -1476.05) rotate(-76.51)" gradientUnits="userSpaceOnUse"><stop offset="0.05" stop-color="#1e1e1e" stop-opacity="0"/><stop offset="0.47"/><stop offset="0.66"/><stop offset="0.86" stop-color="#1e1e1e" stop-opacity="0"/></radialGradient><radialGradient id="radial-gradient-9" cx="38.45" cy="49.99" r="16.29" gradientUnits="userSpaceOnUse"><stop offset="0" stop-color="#353535"/><stop offset="1" stop-color="#353535"/></radialGradient><radialGradient id="radial-gradient-10" cx="61.74" cy="50.16" r="16.69" xlink:href="#radial-gradient-9"/></defs><g class="cls-1"><g id="Layer_1" data-name="Layer 1"><circle class="cls-2" cx="50" cy="50" r="46.49" transform="translate(-9.12 88.8) rotate(-78.28)"/><circle class="cls-3" cx="50" cy="50" r="46.49" transform="translate(-3.87 4.19) rotate(-4.62)"/><circle class="cls-3" cx="50" cy="50" r="46.49" transform="translate(-3.87 4.19) rotate(-4.62)"/><circle class="cls-4" cx="50" cy="50" r="46.49" transform="translate(-13.15 18.19) rotate(-18.26)"/><circle class="cls-5" cx="50" cy="50" r="44.99" transform="translate(-9.12 88.8) rotate(-78.28)"/><circle class="cls-6" cx="50" cy="50" r="44.99" transform="translate(-3.87 4.19) rotate(-4.62)"/><circle class="cls-7" cx="50" cy="50" r="44.99" transform="translate(-3.87 4.19) rotate(-4.62)"/><circle class="cls-8" cx="50" cy="50" r="44.99" transform="translate(-13.15 18.19) rotate(-18.26)"/><circle class="cls-9" cx="50" cy="50" r="40.99" transform="translate(-9.12 88.8) rotate(-78.28)"/><circle class="cls-10" cx="50" cy="50" r="40.99" transform="translate(-3.87 4.19) rotate(-4.62)"/><circle class="cls-10" cx="50" cy="50" r="40.99" transform="translate(-3.87 4.19) rotate(-4.62)"/><circle class="cls-11" cx="50" cy="50" r="40.99" transform="translate(-13.15 18.19) rotate(-18.26)"/><circle class="cls-12" cx="50" cy="50" r="39.99" transform="translate(-9.12 88.8) rotate(-78.28)"/><circle class="cls-13" cx="50" cy="50" r="39.99" transform="translate(-3.87 4.19) rotate(-4.62)"/><circle class="cls-14" cx="50" cy="50" r="39.99" transform="translate(-3.87 4.19) rotate(-4.62)"/><circle class="cls-15" cx="50" cy="50" r="39.99" transform="translate(-13.15 18.19) rotate(-18.26)"/><path class="cls-16" d="M47.69,35.09a.76.76,0,0,1-.71.46,1.62,1.62,0,0,1-.92-.5,11.74,11.74,0,0,0-3.91-2.25,10.43,10.43,0,0,0-3.55-.52,10.48,10.48,0,0,0-3.7.6,7.75,7.75,0,0,0-2.69,1.63,7,7,0,0,0-1.64,2.41A7.51,7.51,0,0,0,30,39.78,5.92,5.92,0,0,0,30.84,43,7.62,7.62,0,0,0,33,45.21a14.4,14.4,0,0,0,3.1,1.51c1.16.41,2.35.82,3.57,1.22s2.41.84,3.56,1.32a12.71,12.71,0,0,1,3.11,1.82,8.33,8.33,0,0,1,2.2,2.68,8.61,8.61,0,0,1,.83,4,12.57,12.57,0,0,1-.83,4.57A10.73,10.73,0,0,1,46.16,66a11.17,11.17,0,0,1-3.87,2.49,14.07,14.07,0,0,1-5.24.92,14.83,14.83,0,0,1-6.58-1.35,15.58,15.58,0,0,1-4.83-3.7l.77-1.2a1,1,0,0,1,.76-.41,1.06,1.06,0,0,1,.63.33l.93.8c.36.32.8.67,1.31,1a11,11,0,0,0,1.78,1,12.32,12.32,0,0,0,5.3,1.13,11.23,11.23,0,0,0,4.1-.7,8.91,8.91,0,0,0,3-1.89,8.06,8.06,0,0,0,1.9-2.85,9.44,9.44,0,0,0,.66-3.54A6.21,6.21,0,0,0,46,54.77a7.14,7.14,0,0,0-2.2-2.21,14.13,14.13,0,0,0-3.1-1.48c-1.15-.4-2.34-.8-3.56-1.18s-2.41-.81-3.57-1.28a12.31,12.31,0,0,1-3.1-1.81,8.43,8.43,0,0,1-2.2-2.76,9.2,9.2,0,0,1-.83-4.13,9.63,9.63,0,0,1,.74-3.74A9.37,9.37,0,0,1,30.31,33a10.57,10.57,0,0,1,3.51-2.21A13,13,0,0,1,38.59,30a14.6,14.6,0,0,1,5.4.95,13.11,13.11,0,0,1,4.36,2.92Z"/><path class="cls-17" d="M48.62,35.38a.77.77,0,0,1-.71.46,1.59,1.59,0,0,1-.92-.5,11.35,11.35,0,0,0-1.52-1.12,11.88,11.88,0,0,0-2.39-1.13,10.43,10.43,0,0,0-3.55-.52,10.58,10.58,0,0,0-3.71.6,7.67,7.67,0,0,0-2.68,1.64,6.9,6.9,0,0,0-1.64,2.4,7.33,7.33,0,0,0-.56,2.86,5.83,5.83,0,0,0,.83,3.25A7.5,7.5,0,0,0,34,45.5,14.2,14.2,0,0,0,37.07,47c1.16.41,2.35.81,3.57,1.21s2.4.84,3.56,1.32a13,13,0,0,1,3.1,1.82,8.14,8.14,0,0,1,2.2,2.69,8.43,8.43,0,0,1,.84,4,12.35,12.35,0,0,1-.84,4.56,10.71,10.71,0,0,1-2.41,3.73,11.48,11.48,0,0,1-3.88,2.5,14,14,0,0,1-5.23.91,14.83,14.83,0,0,1-6.58-1.35,15.36,15.36,0,0,1-4.83-3.7l.77-1.2a1,1,0,0,1,.76-.41,1.12,1.12,0,0,1,.63.33l.93.81c.36.31.8.66,1.31,1a11.32,11.32,0,0,0,1.77,1,12,12,0,0,0,2.33.8,12.15,12.15,0,0,0,3,.33,11.41,11.41,0,0,0,4.1-.69,9,9,0,0,0,3-1.9A8.06,8.06,0,0,0,47.09,62a9.44,9.44,0,0,0,.65-3.54,6.21,6.21,0,0,0-.83-3.37,7.36,7.36,0,0,0-2.2-2.21,14.13,14.13,0,0,0-3.1-1.48c-1.16-.4-2.35-.79-3.57-1.18s-2.41-.81-3.56-1.28a12.31,12.31,0,0,1-3.1-1.81,8.3,8.3,0,0,1-2.2-2.76,9.07,9.07,0,0,1-.84-4.13,9.82,9.82,0,0,1,.74-3.74,9.26,9.26,0,0,1,2.16-3.18,10.73,10.73,0,0,1,3.51-2.21,12.89,12.89,0,0,1,4.77-.83,14.64,14.64,0,0,1,5.4.95,13,13,0,0,1,4.35,2.92Z"/><path class="cls-16" d="M71,32.77Q68.2,30,62.73,30h-8v19.7H48.36v2.12h6.35v18H57v-18h5.78A12.44,12.44,0,0,0,67.35,51a9.94,9.94,0,0,0,3.47-2.28A9.82,9.82,0,0,0,73,45.22a12.32,12.32,0,0,0,.76-4.42Q73.77,35.6,71,32.77Zm-.07,11.56A7.86,7.86,0,0,1,66.43,49a9.61,9.61,0,0,1-3.7.67H57V32.05h5.78c2.92,0,5.11.76,6.59,2.27a9,9,0,0,1,2.21,6.48A10.06,10.06,0,0,1,70.92,44.33Z"/><path class="cls-18" d="M71.66,33.08q-2.77-2.8-8.25-2.81h-8V50H49v2.12h6.35V70h2.24v-18h5.78A12.51,12.51,0,0,0,68,51.28,9.91,9.91,0,0,0,71.5,49a10.09,10.09,0,0,0,2.19-3.48,12.52,12.52,0,0,0,.75-4.41C74.44,37.64,73.52,35,71.66,33.08ZM71.6,44.64a8.13,8.13,0,0,1-1.74,2.8A7.78,7.78,0,0,1,67.1,49.3a9.52,9.52,0,0,1-3.69.67H57.63V32.36h5.78q4.38,0,6.58,2.27a8.91,8.91,0,0,1,2.21,6.49A10,10,0,0,1,71.6,44.64Z"/></g></g></svg>