<svg xmlns="http://www.w3.org/2000/svg" xmlns:xlink="http://www.w3.org/1999/xlink" width="90" height="90" viewBox="0 0 90 104"><defs><style>.cls-1{isolation:isolate;}.cls-2,.cls-3,.cls-4{fill:#d17c15;}.cls-10,.cls-11,.cls-12,.cls-14,.cls-15,.cls-3,.cls-4,.cls-6,.cls-7,.cls-8{mix-blend-mode:overlay;}.cls-10,.cls-11,.cls-3,.cls-6,.cls-7{opacity:0.3;}.cls-12,.cls-4,.cls-8{opacity:0.22;}.cls-5{fill:url(#radial-gradient);}.cls-6{fill:url(#radial-gradient-2);}.cls-7{fill:url(#radial-gradient-3);}.cls-8{fill:url(#radial-gradient-4);}.cls-9{fill:url(#radial-gradient-5);}.cls-10{fill:url(#radial-gradient-6);}.cls-11{fill:url(#radial-gradient-7);}.cls-12{fill:url(#radial-gradient-8);}.cls-13{fill:#fff;}.cls-14{fill:url(#radial-gradient-9);}.cls-15{fill:url(#radial-gradient-10);}</style><radialGradient id="radial-gradient" cx="2101.09" cy="1640.46" r="66.38" gradientTransform="matrix(0.83, -0.56, -0.56, -0.83, -774.66, 2609.42)" gradientUnits="userSpaceOnUse"><stop offset="0" stop-color="#e5b555"/><stop offset="0.31" stop-color="#ebae41"/><stop offset="0.72" stop-color="#f2a82d"/><stop offset="0.99" stop-color="#f4a525"/></radialGradient><radialGradient id="radial-gradient-2" cx="2205.29" cy="-111.95" r="64.27" gradientTransform="matrix(0.84, -0.54, -0.54, -0.84, -1866.82, 1155.45)" gradientUnits="userSpaceOnUse"><stop offset="0" stop-color="#fff" stop-opacity="0"/><stop offset="0.87"/></radialGradient><radialGradient id="radial-gradient-3" cx="-5872.09" cy="-480.42" r="64.32" gradientTransform="matrix(-0.76, 0.65, -0.65, -0.76, -4726.57, 3518.98)" gradientUnits="userSpaceOnUse"><stop offset="0" stop-color="#fff" stop-opacity="0"/><stop offset="0.98"/></radialGradient><radialGradient id="radial-gradient-4" cx="-2773.95" cy="-6510.84" r="122.31" gradientTransform="matrix(-0.23, 0.97, -0.97, -0.23, -6899.21, 1265.56)" gradientUnits="userSpaceOnUse"><stop offset="0.05" stop-color="#fff" stop-opacity="0"/><stop offset="0.47"/><stop offset="0.66"/><stop offset="0.86" stop-color="#fff" stop-opacity="0"/></radialGradient><radialGradient id="radial-gradient-5" cx="1648.07" cy="2079.28" r="59" gradientTransform="matrix(-0.56, -0.83, -0.83, 0.56, 2718.89, 254.95)" xlink:href="#radial-gradient"/><radialGradient id="radial-gradient-6" cx="1880.19" cy="428.23" r="57.13" gradientTransform="matrix(-0.84, 0.54, 0.54, 0.84, 1402.98, -1334.92)" xlink:href="#radial-gradient-2"/><radialGradient id="radial-gradient-7" cx="-5625.14" cy="100.95" r="57.17" gradientTransform="matrix(0.76, -0.65, 0.65, 0.76, 4262.73, -3698.45)" xlink:href="#radial-gradient-3"/><radialGradient id="radial-gradient-8" cx="-3058.13" cy="-5943.63" r="108.72" gradientTransform="translate(6517.17 -1570.1) rotate(-76.51)" xlink:href="#radial-gradient-4"/><radialGradient id="radial-gradient-9" cx="38.41" cy="49.99" r="16.29" gradientUnits="userSpaceOnUse"><stop offset="0" stop-color="#353535"/><stop offset="1" stop-color="#353535"/></radialGradient><radialGradient id="radial-gradient-10" cx="61.7" cy="50.16" r="16.69" xlink:href="#radial-gradient-9"/></defs><g class="cls-1"><g id="Layer_1" data-name="Layer 1"><circle class="cls-2" cx="50" cy="50" r="45.99" transform="translate(-9.12 88.8) rotate(-78.28)"/><circle class="cls-3" cx="50" cy="50" r="45.99" transform="translate(-3.87 4.19) rotate(-4.62)"/><circle class="cls-3" cx="50" cy="50" r="45.99" transform="translate(-3.87 4.19) rotate(-4.62)"/><circle class="cls-4" cx="50" cy="50" r="45.99" transform="translate(-13.15 18.19) rotate(-18.26)"/><circle class="cls-5" cx="50" cy="50" r="44.99" transform="translate(-19.24 35.63) rotate(-33.28)"/><circle class="cls-6" cx="50" cy="50" r="44.99" transform="translate(-20.48 55.7) rotate(-49.62)"/><circle class="cls-7" cx="50" cy="50" r="44.99" transform="translate(-20.48 55.7) rotate(-49.62)"/><circle class="cls-8" cx="50" cy="50" r="44.99" transform="translate(-17.15 72.16) rotate(-63.26)"/><circle class="cls-2" cx="50" cy="50" r="40.99" transform="translate(-9.12 88.8) rotate(-78.28)"/><circle class="cls-3" cx="50" cy="50" r="40.99" transform="translate(-3.87 4.19) rotate(-4.62)"/><circle class="cls-3" cx="50" cy="50" r="40.99" transform="translate(-3.87 4.19) rotate(-4.62)"/><circle class="cls-4" cx="50" cy="50" r="40.99" transform="translate(-13.15 18.19) rotate(-18.26)"/><circle class="cls-9" cx="50" cy="50" r="39.99" transform="translate(-9.12 88.8) rotate(-78.28)"/><circle class="cls-10" cx="50" cy="50" r="39.99" transform="translate(-3.87 4.19) rotate(-4.62)"/><circle class="cls-11" cx="50" cy="50" r="39.99" transform="translate(-3.87 4.19) rotate(-4.62)"/><circle class="cls-12" cx="50" cy="50" r="39.99" transform="translate(-13.15 18.19) rotate(-18.26)"/><path class="cls-13" d="M47.65,35.09a.77.77,0,0,1-.71.46,1.59,1.59,0,0,1-.92-.5,11.35,11.35,0,0,0-1.52-1.12,11.88,11.88,0,0,0-2.39-1.13,10.43,10.43,0,0,0-3.55-.52,10.58,10.58,0,0,0-3.71.6,7.7,7.7,0,0,0-2.68,1.63,7,7,0,0,0-1.64,2.41A7.33,7.33,0,0,0,30,39.78,5.83,5.83,0,0,0,30.8,43,7.5,7.5,0,0,0,33,45.21a14.18,14.18,0,0,0,3.1,1.51c1.16.41,2.34.82,3.57,1.22s2.4.84,3.56,1.32a12.65,12.65,0,0,1,3.1,1.82,8.2,8.2,0,0,1,2.2,2.68,8.48,8.48,0,0,1,.83,4,12.36,12.36,0,0,1-.83,4.57A10.71,10.71,0,0,1,46.12,66a11.31,11.31,0,0,1-3.88,2.49,14,14,0,0,1-5.23.92,14.83,14.83,0,0,1-6.58-1.35,15.36,15.36,0,0,1-4.83-3.7l.76-1.2a1,1,0,0,1,.77-.41,1.12,1.12,0,0,1,.63.33l.93.8c.36.32.8.67,1.31,1a11.32,11.32,0,0,0,1.77,1,12.68,12.68,0,0,0,2.33.8,12.15,12.15,0,0,0,3,.33,11.19,11.19,0,0,0,4.1-.7,9,9,0,0,0,3-1.89,8.06,8.06,0,0,0,1.9-2.85,9.64,9.64,0,0,0,.65-3.54,6.21,6.21,0,0,0-.83-3.37,7.25,7.25,0,0,0-2.2-2.21,14.13,14.13,0,0,0-3.1-1.48c-1.16-.4-2.35-.8-3.57-1.18s-2.41-.81-3.56-1.28a12.31,12.31,0,0,1-3.1-1.81,8.3,8.3,0,0,1-2.2-2.76,9.07,9.07,0,0,1-.84-4.13,9.82,9.82,0,0,1,.74-3.74A9.26,9.26,0,0,1,30.27,33a10.57,10.57,0,0,1,3.51-2.21A12.89,12.89,0,0,1,38.55,30a14.54,14.54,0,0,1,5.39.95,12.91,12.91,0,0,1,4.36,2.92Z"/><path class="cls-14" d="M48.57,35.38a.76.76,0,0,1-.71.46,1.6,1.6,0,0,1-.91-.5,12,12,0,0,0-1.52-1.12A11.72,11.72,0,0,0,43,33.09a10.41,10.41,0,0,0-3.54-.52,10.54,10.54,0,0,0-3.71.6,7.58,7.58,0,0,0-2.68,1.64,6.92,6.92,0,0,0-1.65,2.4,7.51,7.51,0,0,0-.56,2.86,5.84,5.84,0,0,0,.84,3.25,7.46,7.46,0,0,0,2.19,2.18A14.51,14.51,0,0,0,37,47c1.15.41,2.34.81,3.56,1.21s2.41.84,3.57,1.32a13.17,13.17,0,0,1,3.1,1.82,8.26,8.26,0,0,1,2.2,2.69,8.55,8.55,0,0,1,.83,4,12.56,12.56,0,0,1-.83,4.56,10.85,10.85,0,0,1-2.41,3.73,11.48,11.48,0,0,1-3.88,2.5,14,14,0,0,1-5.24.91,14.75,14.75,0,0,1-6.57-1.35,15.36,15.36,0,0,1-4.83-3.7l.76-1.2a1,1,0,0,1,.76-.41,1.06,1.06,0,0,1,.63.33l.93.81c.37.31.8.66,1.31,1a11.44,11.44,0,0,0,1.78,1,11.87,11.87,0,0,0,2.32.8,12.3,12.3,0,0,0,3,.33,11.41,11.41,0,0,0,4.1-.69,9.13,9.13,0,0,0,3-1.9A8,8,0,0,0,47,62a9.44,9.44,0,0,0,.66-3.54,6.3,6.3,0,0,0-.83-3.37,7.36,7.36,0,0,0-2.2-2.21,14.35,14.35,0,0,0-3.1-1.48c-1.16-.4-2.35-.79-3.57-1.18s-2.41-.81-3.57-1.28a12.49,12.49,0,0,1-3.1-1.81,8.43,8.43,0,0,1-2.2-2.76,9.2,9.2,0,0,1-.83-4.13A9.82,9.82,0,0,1,29,36.47a9.26,9.26,0,0,1,2.16-3.18,10.52,10.52,0,0,1,3.51-2.21,12.89,12.89,0,0,1,4.77-.83,14.54,14.54,0,0,1,5.39.95,13,13,0,0,1,4.36,2.92Z"/><path class="cls-13" d="M70.94,32.77Q68.17,30,62.69,30h-8v19.7H48.32v2.12h6.35v18h2.24v-18h5.78A12.51,12.51,0,0,0,67.31,51,9.75,9.75,0,0,0,73,45.22a12.54,12.54,0,0,0,.75-4.42C73.72,37.33,72.8,34.65,70.94,32.77Zm-.06,11.56a8.13,8.13,0,0,1-1.74,2.8A7.91,7.91,0,0,1,66.38,49a9.52,9.52,0,0,1-3.69.67H56.91V32.05h5.78q4.38,0,6.58,2.27a8.9,8.9,0,0,1,2.21,6.48A10.06,10.06,0,0,1,70.88,44.33Z"/><path class="cls-15" d="M71.62,33.08c-1.85-1.87-4.61-2.81-8.25-2.81h-8V50H49v2.12h6.35V70h2.24v-18h5.79A12.42,12.42,0,0,0,68,51.28,9.91,9.91,0,0,0,71.45,49a9.81,9.81,0,0,0,2.19-3.48,12.3,12.3,0,0,0,.76-4.41Q74.4,35.9,71.62,33.08Zm-.07,11.56a8.1,8.1,0,0,1-1.73,2.8,8,8,0,0,1-2.76,1.86,9.59,9.59,0,0,1-3.69.67H57.58V32.36h5.79c2.91,0,5.11.76,6.58,2.27a9,9,0,0,1,2.21,6.49A9.79,9.79,0,0,1,71.55,44.64Z"/></g></g></svg>