<svg xmlns="http://www.w3.org/2000/svg" xmlns:xlink="http://www.w3.org/1999/xlink" width="92" height="92" viewBox="0 0 90 104"><defs><style>.cls-1{isolation:isolate;}.cls-11,.cls-12,.cls-13,.cls-16,.cls-2,.cls-4,.cls-5,.cls-7,.cls-8,.cls-9{mix-blend-mode:overlay;}.cls-3,.cls-4,.cls-5{fill:#d4ac2b;}.cls-11,.cls-12,.cls-4,.cls-7,.cls-8{opacity:0.3;}.cls-13,.cls-5,.cls-9{opacity:0.22;}.cls-6{fill:url(#radial-gradient);}.cls-7{fill:url(#radial-gradient-2);}.cls-8{fill:url(#radial-gradient-3);}.cls-9{fill:url(#radial-gradient-4);}.cls-10{fill:url(#radial-gradient-5);}.cls-11{fill:url(#radial-gradient-6);}.cls-12{fill:url(#radial-gradient-7);}.cls-13{fill:url(#radial-gradient-8);}.cls-14{fill:#fff;}.cls-15{fill:url(#radial-gradient-9);}.cls-16{fill:url(#radial-gradient-10);}</style><radialGradient id="radial-gradient" cx="1895.36" cy="2027.19" r="67.85" gradientTransform="matrix(0.83, -0.56, -0.56, -0.83, -388.34, 2816.85)" gradientUnits="userSpaceOnUse"><stop offset="0" stop-color="#d4ac2b"/><stop offset="0.25" stop-color="#e3b834"/><stop offset="0.7" stop-color="#f7c840"/><stop offset="0.99" stop-color="#ffce45"/></radialGradient><radialGradient id="radial-gradient-2" cx="2111.28" cy="348.38" r="65.7" gradientTransform="matrix(-0.54, -0.84, -0.84, 0.54, 1493.74, 1640.29)" gradientUnits="userSpaceOnUse"><stop offset="0" stop-color="#fff" stop-opacity="0"/><stop offset="0.87"/></radialGradient><radialGradient id="radial-gradient-3" cx="-5585.5" cy="5.92" r="65.75" gradientTransform="translate(3704.53 4293.02) rotate(49.62)" gradientUnits="userSpaceOnUse"><stop offset="0" stop-color="#fff" stop-opacity="0"/><stop offset="0.98"/></radialGradient><radialGradient id="radial-gradient-4" cx="-2914.56" cy="-6077.02" r="125.02" gradientTransform="translate(1504.31 6609.54) rotate(13.49)" gradientUnits="userSpaceOnUse"><stop offset="0.05" stop-color="#fff" stop-opacity="0"/><stop offset="0.47"/><stop offset="0.66"/><stop offset="0.86" stop-color="#fff" stop-opacity="0"/></radialGradient><radialGradient id="radial-gradient-5" cx="1896.48" cy="2030.79" r="59" gradientTransform="matrix(-0.56, -0.83, -0.83, 0.56, 2816.85, 488.34)" xlink:href="#radial-gradient"/><radialGradient id="radial-gradient-6" cx="2111.99" cy="350.47" r="57.13" gradientTransform="matrix(-0.84, 0.54, 0.54, 0.84, 1640.29, -1393.74)" xlink:href="#radial-gradient-2"/><radialGradient id="radial-gradient-7" cx="-5587.37" cy="9.77" r="57.17" gradientTransform="translate(4293.02 -3604.53) rotate(-40.38)" xlink:href="#radial-gradient-3"/><radialGradient id="radial-gradient-8" cx="-2918.46" cy="-6072.13" r="108.72" gradientTransform="translate(6609.54 -1404.31) rotate(-76.51)" xlink:href="#radial-gradient-4"/><radialGradient id="radial-gradient-9" cx="40.11" cy="50.25" r="18.78" gradientUnits="userSpaceOnUse"><stop offset="0" stop-color="#353535"/><stop offset="1" stop-color="#353535"/></radialGradient><radialGradient id="radial-gradient-10" cx="65.7" cy="50.1" r="16.78" xlink:href="#radial-gradient-9"/></defs><g class="cls-1"><g id="Layer_1" data-name="Layer 1"><g class="cls-2"><circle class="cls-3" cx="50" cy="50" r="45.99" transform="translate(-9.12 88.8) rotate(-78.28)"/><circle class="cls-4" cx="50" cy="50" r="45.99" transform="translate(-3.87 4.19) rotate(-4.62)"/><circle class="cls-4" cx="50" cy="50" r="45.99" transform="translate(-3.87 4.19) rotate(-4.62)"/><circle class="cls-5" cx="50" cy="50" r="45.99" transform="translate(-13.15 18.19) rotate(-18.26)"/></g><circle class="cls-6" cx="50" cy="50" r="45.99" transform="translate(-9.12 88.8) rotate(-78.28)"/><circle class="cls-7" cx="50" cy="50" r="45.99" transform="translate(-3.87 4.19) rotate(-4.62)"/><circle class="cls-8" cx="50" cy="50" r="45.99" transform="translate(-3.87 4.19) rotate(-4.62)"/><circle class="cls-9" cx="50" cy="50" r="45.99" transform="translate(-13.15 18.19) rotate(-18.26)"/><circle class="cls-3" cx="50" cy="50" r="40.99" transform="translate(-9.12 88.8) rotate(-78.28)"/><circle class="cls-4" cx="50" cy="50" r="40.99" transform="translate(-3.87 4.19) rotate(-4.62)"/><circle class="cls-4" cx="50" cy="50" r="40.99" transform="translate(-3.87 4.19) rotate(-4.62)"/><circle class="cls-5" cx="50" cy="50" r="40.99" transform="translate(-13.15 18.19) rotate(-18.26)"/><circle class="cls-10" cx="50" cy="50" r="39.99" transform="translate(-9.12 88.8) rotate(-78.28)"/><circle class="cls-11" cx="50" cy="50" r="39.99" transform="translate(-3.87 4.19) rotate(-4.62)"/><circle class="cls-12" cx="50" cy="50" r="39.99" transform="translate(-3.87 4.19) rotate(-4.62)"/><circle class="cls-13" cx="50" cy="50" r="39.99" transform="matrix(0.95, -0.31, 0.31, 0.95, -13.15, 18.19)"/><path class="cls-14" d="M21.52,30.1H23.8a1,1,0,0,1,.64.21,1.31,1.31,0,0,1,.39.55L38.35,63.79a16.67,16.67,0,0,1,.87,2.75A15.36,15.36,0,0,1,40,63.79L53.53,30.86a1.44,1.44,0,0,1,.41-.54,1,1,0,0,1,.66-.22h2.24L40.46,69.79H37.9Z"/><g class="cls-2"><path class="cls-15" d="M22.45,30.41h2.27a1,1,0,0,1,.64.21,1.47,1.47,0,0,1,.4.54L39.28,64.1a18.43,18.43,0,0,1,.87,2.75A14.59,14.59,0,0,1,41,64.1L54.45,31.16a1.61,1.61,0,0,1,.41-.53,1,1,0,0,1,.66-.22h2.24L41.38,70.1H38.83Z"/></g><path class="cls-14" d="M75,32.72q-2.79-2.82-8.26-2.82h-8V49.6H52.32v2.12h6.35v18h2.24v-18h5.78a12.44,12.44,0,0,0,4.62-.81A9.68,9.68,0,0,0,77,45.16a12.3,12.3,0,0,0,.76-4.41Q77.73,35.53,75,32.72Zm-.07,11.55a8.1,8.1,0,0,1-1.73,2.8,7.82,7.82,0,0,1-2.76,1.86,9.61,9.61,0,0,1-3.7.68H60.91V32h5.78c2.92,0,5.11.76,6.59,2.28a8.91,8.91,0,0,1,2.21,6.48A9.79,9.79,0,0,1,74.88,44.27Z"/><path class="cls-16" d="M75.68,32.93q-2.79-2.84-8.3-2.83H59.31V49.92H52.93V52h6.38V70.1h2.26v-18h5.81A12.58,12.58,0,0,0,72,51.23a10.09,10.09,0,0,0,3.5-2.29,9.9,9.9,0,0,0,2.19-3.49A12.47,12.47,0,0,0,78.48,41Q78.48,35.76,75.68,32.93Zm-.07,11.62a8.06,8.06,0,0,1-1.74,2.82,8,8,0,0,1-2.78,1.87,9.66,9.66,0,0,1-3.71.68H61.57V32.2h5.81c2.93,0,5.14.77,6.62,2.29A9,9,0,0,1,76.22,41,9.9,9.9,0,0,1,75.61,44.55Z"/></g></g></svg>