<svg id="vs" xmlns="http://www.w3.org/2000/svg" width="32.693" height="59.564" viewBox="0 0 32.693 59.564">
  <g id="Group_4107" transform="translate(9.325 25.656)">
    <text id="VS-2" transform="translate(6 9)" fill="#6352e8" font-size="12" font-family="Poppins-SemiBold, Poppins" font-weight="600"><tspan x="-7.92" y="0">VS</tspan></text>
  </g>
  <path id="lightning-solid" d="M5.232,23.2a.328.328,0,0,0,.3.194h9.313a.334.334,0,0,0,.281-.154l7.16-11.365a.328.328,0,0,0-.274-.515H16.884L21.41,2.5A.348.348,0,0,0,21.1,2H19.1a.334.334,0,0,0-.247.107L7.1,14.8a.334.334,0,0,0,.247.568h4.506L5.285,22.845A.328.328,0,0,0,5.232,23.2Z" transform="translate(10.349 -2)" fill="#6352e8"/>
  <path id="lightning-solid-2" d="M17.113.194a.328.328,0,0,0-.3-.194H7.5a.334.334,0,0,0-.281.154L.059,11.519a.328.328,0,0,0,.274.515H5.46L.935,20.892a.348.348,0,0,0,.308.5H3.248a.334.334,0,0,0,.247-.107l11.746-12.7a.334.334,0,0,0-.247-.568H10.488L17.059.548A.328.328,0,0,0,17.113.194Z" transform="translate(0 38.171)" fill="#6352e8"/>
</svg>
